<svg width="24" height="24" viewBox="0 0 24 24" fill="none" xmlns="http://www.w3.org/2000/svg">
<path d="M20.5 15.9999H16.5C16.2239 15.9999 16 16.2238 16 16.4999C16 16.7761 16.2239 16.9999 16.5 16.9999H19.476C17.8161 19.4746 15.035 20.9971 12.0175 20.9999C7.04205 21.0048 3.00482 16.9753 3 11.9999C2.99957 11.5247 3.03748 11.0502 3.11334 10.581C3.15808 10.3086 2.97357 10.0516 2.70123 10.0068C2.42883 9.96203 2.17175 10.1465 2.12702 10.4189C2.04224 10.9416 1.99976 11.4704 2 11.9999C2.00647 17.5201 6.47986 21.9935 12 21.9999C15.1759 22.0013 18.1254 20.4934 20 18.0013V20.5005C20.0002 20.7765 20.224 21.0001 20.5 20.9999C20.7759 20.9997 21.0002 20.7759 21 20.4999V16.4993C20.9998 16.2234 20.776 15.9997 20.5 15.9999ZM16.7373 3.1964C12.3202 0.817679 6.92078 2.10717 4 6.00286V3.49993C4 3.22381 3.77612 2.99993 3.5 2.99993C3.22388 2.99993 3 3.22381 3 3.49993V7.50054C3.00018 7.77648 3.224 8.00011 3.5 7.99993H7.5C7.77612 7.99993 8 7.77605 8 7.49993C8 7.22381 7.77612 6.99993 7.5 6.99993H4.52399C6.1839 4.52526 8.96503 3.0028 11.9825 2.99993C16.9579 2.99511 20.9952 7.02453 21 11.9999C21.0004 12.4752 20.9626 12.9497 20.8868 13.4189C20.8866 13.4197 20.8865 13.4204 20.8864 13.4212C20.8423 13.693 21.027 13.9491 21.2989 13.9931C21.3259 13.9978 21.3534 14.0001 21.3809 13.9999C21.6254 13.9996 21.8336 13.8223 21.873 13.5809C21.9578 13.0582 22.0002 12.5295 22 11.9999C21.9971 8.32122 19.9762 4.94067 16.7373 3.1964ZM15 11.9999C15 10.3431 13.6569 8.99993 12 8.99993C10.3431 8.99993 9 10.3431 9 11.9999C9 13.6568 10.3431 14.9999 12 14.9999C13.6561 14.9981 14.9982 13.6561 15 11.9999ZM10 11.9999C10 10.8954 10.8954 9.99993 12 9.99993C13.104 10.0013 13.9986 10.8959 14 11.9999C14 13.1045 13.1046 13.9999 12 13.9999C10.8954 13.9999 10 13.1045 10 11.9999Z" fill="white"/>
</svg>
