<svg width="14" height="14" viewBox="0 0 14 14" fill="none" xmlns="http://www.w3.org/2000/svg">
<mask id="mask0_344_5099" style="mask-type:luminance" maskUnits="userSpaceOnUse" x="0" y="0" width="14" height="14">
<path d="M0 0H14V14H0V0Z" fill="white"/>
</mask>
<g mask="url(#mask0_344_5099)">
<path d="M4.65222 3.12704C4.61129 3.1696 4.5779 3.21881 4.55348 3.27257L4.55053 3.26962L0.418323 12.5778L0.422376 12.5818C0.345744 12.7303 0.473955 13.0324 0.736639 13.2955C0.998955 13.5578 1.30106 13.686 1.44953 13.6094L1.45322 13.613L10.7621 9.4812L10.7592 9.47789C10.8137 9.4521 10.8631 9.42078 10.9047 9.37915C11.4802 8.80368 10.547 6.93762 8.82053 5.2112C7.09411 3.48441 5.22769 2.55157 4.65222 3.12704Z" fill="white"/>
<path d="M5.15843 4.78954L0.522218 12.3444L0.418323 12.5783L0.422376 12.582C0.345744 12.7309 0.473955 13.0326 0.736639 13.2956C0.815634 13.3737 0.903269 13.4426 0.997849 13.5009L6.63211 6.63164L5.15843 4.78954Z" fill="white"/>
<path d="M8.84728 5.18226C10.5678 6.90353 11.5231 8.73826 10.9801 9.28095C10.4374 9.82363 8.60265 8.86868 6.88102 7.14816C5.16012 5.4269 4.20517 3.59179 4.74786 3.04874C5.29091 2.50605 7.12565 3.46137 8.84728 5.18226Z" fill="white"/>
<path d="M7.2171 5.38263C7.17953 5.41311 7.13628 5.43581 7.08985 5.4494C7.04343 5.463 6.99476 5.46723 6.94668 5.46184C6.62689 5.42721 6.35795 5.31595 6.16968 5.14021C5.97037 4.95416 5.872 4.70473 5.89889 4.45421C5.94605 4.01505 6.38668 3.612 7.13789 3.69342C7.43005 3.72473 7.56047 3.63079 7.56452 3.58584C7.56968 3.54126 7.46247 3.42152 7.17068 3.38984C6.85052 3.35521 6.58195 3.24395 6.39331 3.06821C6.194 2.88216 6.09526 2.63237 6.12252 2.38221C6.17042 1.94305 6.61068 1.54 7.36116 1.62142C7.5741 1.64426 7.6861 1.60005 7.73363 1.57168C7.77195 1.54847 7.78705 1.52637 7.78852 1.51384C7.79258 1.46926 7.68684 1.34952 7.39395 1.31784C7.29831 1.30554 7.21131 1.25624 7.15162 1.18051C7.09192 1.10479 7.06429 1.00868 7.07466 0.912816C7.08503 0.816952 7.13257 0.728973 7.20707 0.667763C7.28157 0.606552 7.3771 0.57699 7.47316 0.585419C8.22363 0.666103 8.56847 1.15352 8.52095 1.59305C8.47342 2.03221 8.03316 2.43489 7.28195 2.35384C7.069 2.33063 6.95737 2.37484 6.90984 2.40321C6.87189 2.42642 6.85642 2.44889 6.85495 2.46105C6.85016 2.506 6.95663 2.62574 7.24952 2.65742C8 2.7381 8.34484 3.22552 8.29731 3.66505C8.24979 4.10421 7.80916 4.50726 7.05868 4.42584C6.84573 4.403 6.73373 4.44684 6.68584 4.47521C6.64789 4.49842 6.63316 4.52089 6.63168 4.53342C6.62689 4.578 6.73337 4.69773 7.02589 4.72942C7.0985 4.73696 7.16721 4.76595 7.22329 4.81268C7.27936 4.85942 7.32026 4.92178 7.34077 4.99184C7.36127 5.0619 7.36047 5.13647 7.33844 5.20606C7.31642 5.27566 7.27418 5.33712 7.2171 5.38263Z" fill="white"/>
<path d="M11.6647 8.78938C12.3916 8.58417 12.893 8.90838 13.0124 9.3339C13.1318 9.75906 12.8731 10.2973 12.147 10.5014C11.8633 10.581 11.7782 10.7166 11.7896 10.7601C11.8021 10.8035 11.9462 10.875 12.2291 10.7947C12.9557 10.5906 13.4571 10.9148 13.5765 11.34C13.6969 11.7655 13.4376 12.303 12.7107 12.5079C12.4274 12.5874 12.3419 12.7234 12.3544 12.7665C12.3666 12.8096 12.5103 12.8807 12.7936 12.8015C12.8406 12.787 12.89 12.782 12.939 12.7869C12.9879 12.7918 13.0354 12.8064 13.0786 12.8299C13.1218 12.8535 13.1599 12.8854 13.1905 12.9239C13.2212 12.9624 13.2438 13.0066 13.2571 13.054C13.2704 13.1013 13.2741 13.1509 13.2679 13.1997C13.2617 13.2485 13.2458 13.2956 13.2212 13.3381C13.1965 13.3807 13.1636 13.4179 13.1243 13.4476C13.085 13.4772 13.0402 13.4987 12.9925 13.5107C12.2667 13.7152 11.7646 13.3917 11.6445 12.9658C11.5251 12.5406 11.7841 12.0031 12.5114 11.7983C12.7947 11.7183 12.8801 11.5831 12.8676 11.5396C12.8555 11.4965 12.7121 11.4247 12.4288 11.5043C11.7019 11.7091 11.2005 11.3856 11.0808 10.9597C10.961 10.5342 11.22 9.99669 11.9473 9.79185C12.2299 9.71264 12.3154 9.57632 12.3032 9.53359C12.2907 9.48975 12.1477 9.41827 11.864 9.49822C11.8169 9.51339 11.7672 9.5189 11.7178 9.51442C11.6685 9.50993 11.6206 9.49555 11.5769 9.47212C11.5333 9.44869 11.4948 9.4167 11.4638 9.37806C11.4328 9.33942 11.4099 9.29492 11.3965 9.24724C11.3831 9.19955 11.3795 9.14965 11.3858 9.10052C11.3921 9.05139 11.4083 9.00403 11.4333 8.96129C11.4583 8.91855 11.4917 8.88129 11.5315 8.85176C11.5713 8.82222 11.6166 8.801 11.6647 8.78938Z" fill="white"/>
<path d="M8.84289 7.79565C8.7666 7.79555 8.69222 7.77179 8.62999 7.72764C8.56777 7.68349 8.52077 7.62113 8.49548 7.54916C8.47018 7.47718 8.46782 7.39913 8.48874 7.32576C8.50966 7.25239 8.55281 7.18731 8.61226 7.1395C8.69258 7.07502 10.6084 5.57039 13.3159 5.9576C13.3638 5.96442 13.4098 5.98061 13.4515 6.00525C13.4931 6.02989 13.5295 6.06249 13.5585 6.10119C13.5875 6.13989 13.6086 6.18392 13.6206 6.23078C13.6326 6.27764 13.6352 6.32641 13.6283 6.37429C13.6217 6.42229 13.6056 6.4685 13.581 6.51025C13.5564 6.55199 13.5237 6.58845 13.485 6.6175C13.4462 6.64656 13.402 6.66763 13.355 6.67951C13.3081 6.69139 13.2592 6.69383 13.2113 6.68671C10.8191 6.34702 9.08973 7.70134 9.07279 7.71497C9.00761 7.76731 8.92649 7.79579 8.84289 7.79565Z" fill="white"/>
<path d="M2.48808 6.26306C2.43061 6.26308 2.37394 6.24966 2.32258 6.22387C2.27123 6.19807 2.22662 6.16063 2.19233 6.11452C2.15803 6.06841 2.13499 6.01491 2.12506 5.95831C2.11513 5.90171 2.11858 5.84357 2.13513 5.78854C2.55255 4.39848 2.93092 2.18022 2.46597 1.60217C2.41366 1.53659 2.33555 1.47211 2.15576 1.48575C1.80981 1.5119 1.84297 2.24138 1.84334 2.24875C1.84802 2.29755 1.84291 2.34681 1.82831 2.39362C1.81371 2.44042 1.78991 2.48385 1.75831 2.52134C1.72671 2.55883 1.68795 2.58964 1.64429 2.61195C1.60063 2.63427 1.55295 2.64765 1.50405 2.6513C1.45516 2.65496 1.40602 2.64881 1.35953 2.63323C1.31304 2.61765 1.27013 2.59295 1.23331 2.56057C1.19649 2.52819 1.1665 2.48879 1.1451 2.44467C1.12371 2.40055 1.11134 2.3526 1.10871 2.30364C1.07039 1.79559 1.22881 0.817061 2.10013 0.751114C2.48918 0.721641 2.81229 0.856851 3.04071 1.14054C3.91424 2.22775 3.02745 5.37996 2.84066 6.00075C2.81786 6.07654 2.77126 6.14298 2.70776 6.19023C2.64426 6.23747 2.56723 6.26301 2.48808 6.26306Z" fill="white"/>
<path d="M10.3166 3.86839C10.3165 3.94099 10.3022 4.01287 10.2744 4.07993C10.2466 4.14699 10.2059 4.20792 10.1545 4.25923C10.1032 4.31055 10.0422 4.35125 9.97514 4.37901C9.90806 4.40677 9.83617 4.42104 9.76357 4.42102C9.69097 4.421 9.61909 4.40667 9.55203 4.37887C9.48497 4.35107 9.42404 4.31033 9.37272 4.25897C9.32141 4.20762 9.28071 4.14667 9.25295 4.07959C9.22519 4.01251 9.21091 3.94062 9.21094 3.86802C9.21099 3.7214 9.26928 3.58081 9.37298 3.47717C9.47669 3.37354 9.61732 3.31534 9.76394 3.31539C9.91055 3.31544 10.0511 3.37373 10.1548 3.47744C10.2584 3.58114 10.3166 3.72177 10.3166 3.86839Z" fill="white"/>
<path d="M1.84319 7.0001C1.84317 7.09688 1.82408 7.19272 1.78702 7.28213C1.74996 7.37154 1.69565 7.45278 1.62719 7.5212C1.55874 7.58962 1.47747 7.64389 1.38804 7.68091C1.29862 7.71792 1.20277 7.73696 1.10598 7.73694C1.0092 7.73691 0.91336 7.71783 0.823949 7.68077C0.734538 7.6437 0.653302 7.58939 0.58488 7.52094C0.516458 7.45248 0.46219 7.37122 0.425173 7.28179C0.388156 7.19236 0.369116 7.09652 0.369141 6.99973C0.36919 6.80426 0.446887 6.61681 0.585141 6.47863C0.723395 6.34044 0.91088 6.26284 1.10635 6.26289C1.30182 6.26293 1.48927 6.34063 1.62745 6.47889C1.76564 6.61714 1.84324 6.80462 1.84319 7.0001Z" fill="white"/>
<path d="M12.8947 7.55259C12.8947 7.62519 12.8803 7.69707 12.8525 7.76413C12.8247 7.83119 12.784 7.89212 12.7326 7.94344C12.6813 7.99476 12.6203 8.03546 12.5533 8.06321C12.4862 8.09097 12.4143 8.10525 12.3417 8.10522C12.2691 8.1052 12.1972 8.09088 12.1302 8.06307C12.0631 8.03527 12.0022 7.99453 11.9508 7.94318C11.8995 7.89183 11.8588 7.83087 11.8311 7.76379C11.8033 7.69671 11.789 7.62482 11.7891 7.55222C11.7891 7.40561 11.8474 7.26502 11.9511 7.16138C12.0548 7.05774 12.1954 6.99954 12.3421 6.99959C12.4887 6.99964 12.6293 7.05793 12.7329 7.16164C12.8365 7.26535 12.8947 7.40598 12.8947 7.55259Z" fill="white"/>
<path d="M9.57829 11.9737C9.57826 12.0463 9.56394 12.1182 9.53614 12.1853C9.50833 12.2523 9.46759 12.3133 9.41624 12.3646C9.36489 12.4159 9.30394 12.4566 9.23686 12.4844C9.16978 12.5121 9.09788 12.5264 9.02529 12.5264C8.95269 12.5263 8.88081 12.512 8.81375 12.4842C8.74669 12.4564 8.68576 12.4157 8.63444 12.3643C8.58313 12.313 8.54243 12.252 8.51467 12.1849C8.48691 12.1179 8.47263 12.046 8.47266 11.9734C8.47271 11.8268 8.53099 11.6862 8.6347 11.5825C8.73841 11.4789 8.87904 11.4207 9.02566 11.4207C9.17227 11.4208 9.31286 11.4791 9.4165 11.5828C9.52014 11.6865 9.57834 11.8271 9.57829 11.9737Z" fill="white"/>
<path d="M11.4213 1.84214C11.4213 1.93893 11.4022 2.03476 11.3651 2.12417C11.3281 2.21358 11.2738 2.29482 11.2053 2.36324C11.1369 2.43166 11.0556 2.48593 10.9662 2.52295C10.8767 2.55996 10.7809 2.579 10.6841 2.57898C10.5873 2.57896 10.4915 2.55987 10.4021 2.52281C10.3127 2.48574 10.2314 2.43144 10.163 2.36298C10.0946 2.29452 10.0403 2.21326 10.0033 2.12383C9.96628 2.0344 9.94724 1.93856 9.94727 1.84177C9.94731 1.6463 10.025 1.45885 10.1633 1.32067C10.3015 1.18248 10.489 1.10488 10.6845 1.10493C10.8799 1.10498 11.0674 1.18267 11.2056 1.32093C11.3438 1.45918 11.4214 1.64667 11.4213 1.84214Z" fill="white"/>
<path d="M12.8947 3.5001C12.8947 3.5727 12.8803 3.64458 12.8525 3.71164C12.8247 3.7787 12.784 3.83963 12.7326 3.89095C12.6813 3.94227 12.6203 3.98297 12.5533 4.01072C12.4862 4.03848 12.4143 4.05276 12.3417 4.05273C12.2691 4.05271 12.1972 4.03839 12.1302 4.01058C12.0631 3.98278 12.0022 3.94204 11.9508 3.89069C11.8995 3.83934 11.8588 3.77838 11.8311 3.7113C11.8033 3.64422 11.789 3.57233 11.7891 3.49973C11.7891 3.35312 11.8474 3.21253 11.9511 3.10889C12.0548 3.00525 12.1954 2.94705 12.3421 2.9471C12.4887 2.94715 12.6293 3.00544 12.7329 3.10915C12.8365 3.21286 12.8947 3.35349 12.8947 3.5001Z" fill="white"/>
<path d="M11.7892 4.97374C11.7892 5.04633 11.7749 5.11821 11.7471 5.18527C11.7193 5.25234 11.6785 5.31326 11.6272 5.36458C11.5758 5.4159 11.5149 5.4566 11.4478 5.48436C11.3807 5.51212 11.3088 5.52639 11.2362 5.52637C11.1636 5.52634 11.0917 5.51202 11.0247 5.48422C10.9576 5.45641 10.8967 5.41567 10.8454 5.36432C10.7941 5.31297 10.7534 5.25201 10.7256 5.18493C10.6978 5.11785 10.6836 5.04596 10.6836 4.97337C10.6836 4.82675 10.7419 4.68616 10.8456 4.58252C10.9493 4.47888 11.09 4.42069 11.2366 4.42074C11.3832 4.42078 11.5238 4.47907 11.6274 4.58278C11.7311 4.68649 11.7893 4.82712 11.7892 4.97374Z" fill="white"/>
<path d="M3.68376 9.02635C3.68373 9.09894 3.66941 9.17083 3.64161 9.23789C3.6138 9.30495 3.57306 9.36588 3.52171 9.41719C3.47036 9.46851 3.4094 9.50921 3.34232 9.53697C3.27524 9.56473 3.20335 9.579 3.13076 9.57898C3.05816 9.57896 2.98628 9.56463 2.91922 9.53683C2.85216 9.50902 2.79123 9.46828 2.73991 9.41693C2.68859 9.36558 2.64789 9.30463 2.62014 9.23755C2.59238 9.17047 2.5781 9.09858 2.57813 9.02598C2.57817 8.87936 2.63646 8.73877 2.74017 8.63513C2.84388 8.5315 2.98451 8.4733 3.13113 8.47335C3.27774 8.4734 3.41833 8.53169 3.52197 8.63539C3.62561 8.7391 3.68381 8.87973 3.68376 9.02635Z" fill="white"/>
</g>
</svg>
