<svg width="50" height="50" viewBox="0 0 50 50" fill="none" xmlns="http://www.w3.org/2000/svg">
<circle cx="24.6752" cy="24.6752" r="24.6752" fill="url(#paint0_linear_0_8)"/>
<path d="M30.3136 21.9178C30.3136 24.2484 29.5055 26.5069 28.0269 28.3085C26.5484 30.1101 24.4909 31.3433 22.2051 31.798C19.9192 32.2527 17.5465 31.9007 15.491 30.802C13.4356 29.7034 11.8247 27.9261 10.9328 25.7728C10.0409 23.6196 9.92325 21.2238 10.5998 18.9935C11.2763 16.7632 12.7053 14.8366 14.6431 13.5417C16.5809 12.2469 18.9078 11.6641 21.2272 11.8925C23.5466 12.1209 25.715 13.1465 27.363 14.7945L25.2585 16.899C24.0974 15.7379 22.5696 15.0154 20.9355 14.8544C19.3013 14.6935 17.6619 15.1041 16.2966 16.0164C14.9313 16.9287 13.9245 18.2861 13.4479 19.8575C12.9712 21.4288 13.0541 23.1168 13.6825 24.6339C14.3109 26.1509 15.4459 27.4032 16.894 28.1772C18.3422 28.9513 20.014 29.1993 21.6245 28.8789C23.235 28.5586 24.6846 27.6897 25.7263 26.4204C26.768 25.1511 27.3373 23.5598 27.3373 21.9178H30.3136Z" fill="white"/>
<path d="M18.5437 27.4954C18.4436 25.167 19.1539 22.8758 20.5537 21.0124C21.9535 19.1489 23.9561 17.8285 26.2203 17.276C28.4844 16.7235 30.8702 16.9732 32.9709 17.9826C35.0716 18.9919 36.7574 20.6984 37.7409 22.8113C38.7245 24.9242 38.945 27.3128 38.3649 29.5701C37.7848 31.8273 36.44 33.8136 34.5596 35.1905C32.6792 36.5674 30.3795 37.2497 28.0524 37.1211C25.7253 36.9925 23.5149 36.061 21.7976 34.4853L23.8097 32.2924C25.0197 33.4025 26.5771 34.0588 28.2166 34.1494C29.8562 34.24 31.4764 33.7593 32.8013 32.7892C34.1262 31.8191 35.0737 30.4196 35.4824 28.8293C35.8911 27.2389 35.7357 25.556 35.0427 24.0673C34.3498 22.5787 33.162 21.3763 31.682 20.6652C30.2019 19.9541 28.521 19.7782 26.9258 20.1674C25.3305 20.5566 23.9196 21.487 22.9334 22.7999C21.9471 24.1128 21.4467 25.727 21.5172 27.3676L18.5437 27.4954Z" fill="white"/>
<defs>
<linearGradient id="paint0_linear_0_8" x1="5.23114" y1="9.37656" x2="24.6752" y2="49.3503" gradientUnits="userSpaceOnUse">
<stop stop-color="#FABD61"/>
<stop offset="1" stop-color="#F59855"/>
</linearGradient>
</defs>
</svg>
