<svg width="43" height="38" viewBox="0 0 43 38" fill="none" xmlns="http://www.w3.org/2000/svg">
<path fill-rule="evenodd" clip-rule="evenodd" d="M12.1406 34.8347L17.7007 36.3099V34.3809L18.1546 33.927H21.3317V36.1964V37.7849H17.9276L13.7292 35.9694L12.1406 34.8347Z" fill="#CDBDB2"/>
<path fill-rule="evenodd" clip-rule="evenodd" d="M30.2969 34.8347L24.8504 36.3099V34.3809L24.3965 33.927H21.2194V36.1964V37.7849H24.6235L28.8217 35.9694L30.2969 34.8347Z" fill="#CDBDB2"/>
<path fill-rule="evenodd" clip-rule="evenodd" d="M18.155 30.6365L17.7012 34.3809L18.2684 33.927H24.1688L24.8496 34.3809L24.3957 30.6365L23.488 30.0691L18.9492 30.1827L18.155 30.6365Z" fill="#393939"/>
<path fill-rule="evenodd" clip-rule="evenodd" d="M15.0918 5.33301L17.815 11.6872L19.0633 30.1827H23.4885L24.8501 11.6872L27.3464 5.33301H15.0918Z" fill="#F89C35"/>
<path fill-rule="evenodd" clip-rule="evenodd" d="M3.17712 19.2898L0 28.4806L7.94279 28.0268H13.0488V24.0555L12.8218 15.8857L11.6872 16.7935L3.17712 19.2898Z" fill="#F89D35"/>
<path fill-rule="evenodd" clip-rule="evenodd" d="M9.19141 20.3108L18.4958 20.5377L17.4747 25.3034L13.0493 24.1687L9.19141 20.3108Z" fill="#D87C30"/>
<path fill-rule="evenodd" clip-rule="evenodd" d="M9.19141 20.4243L13.0493 24.0553V27.6863L9.19141 20.4243Z" fill="#EA8D3A"/>
<path fill-rule="evenodd" clip-rule="evenodd" d="M13.0488 24.1687L17.5876 25.3034L19.0628 30.1826L18.0414 30.7499L13.0488 27.7997V24.1687Z" fill="#F89D35"/>
<path fill-rule="evenodd" clip-rule="evenodd" d="M13.0484 27.7998L12.1406 34.8349L18.1546 30.6366L13.0484 27.7998Z" fill="#EB8F35"/>
<path fill-rule="evenodd" clip-rule="evenodd" d="M18.496 20.5378L19.0635 30.1828L17.3613 25.2468L18.496 20.5378Z" fill="#EA8E3A"/>
<path fill-rule="evenodd" clip-rule="evenodd" d="M7.83008 27.9134L13.0496 27.7998L12.1419 34.8349L7.83008 27.9134Z" fill="#D87C30"/>
<path fill-rule="evenodd" clip-rule="evenodd" d="M2.49631 37.8986L12.141 34.8348L7.82923 27.9133L0 28.4806L2.49631 37.8986Z" fill="#EB8F35"/>
<path fill-rule="evenodd" clip-rule="evenodd" d="M17.815 11.6873L12.936 15.7721L9.19141 20.3109L18.4958 20.6514L17.815 11.6873Z" fill="#E8821E"/>
<path fill-rule="evenodd" clip-rule="evenodd" d="M12.1406 34.8347L18.1546 30.6365L17.7007 34.2675V36.3099L13.6158 35.5155L12.1406 34.8347Z" fill="#DFCEC3"/>
<path fill-rule="evenodd" clip-rule="evenodd" d="M30.2969 34.8347L24.3965 30.6365L24.8504 34.2675V36.3099L28.9353 35.5155L30.2969 34.8347Z" fill="#DFCEC3"/>
<path fill-rule="evenodd" clip-rule="evenodd" d="M15.9998 22.5803L17.248 25.1902L12.8227 24.0555L15.9998 22.5803Z" fill="#393939"/>
<path fill-rule="evenodd" clip-rule="evenodd" d="M2.38281 0L17.8145 11.6872L15.2049 5.33292L2.38281 0Z" fill="#E88F35"/>
<path fill-rule="evenodd" clip-rule="evenodd" d="M2.38228 0L0.339844 6.24077L1.47453 13.0489L0.680249 13.5028L1.81493 14.524L0.907186 15.3182L2.15534 16.4529L1.36106 17.1337L3.17656 19.4031L11.6867 16.7933C15.8472 13.4649 17.8896 11.7629 17.814 11.6873C17.7383 11.6116 12.5944 7.71586 2.38228 0Z" fill="#8E5A30"/>
<path fill-rule="evenodd" clip-rule="evenodd" d="M39.2604 19.2898L42.4375 28.4806L34.4947 28.0268H29.3887V24.0555L29.6157 15.8857L30.7503 16.7935L39.2604 19.2898Z" fill="#F89D35"/>
<path fill-rule="evenodd" clip-rule="evenodd" d="M33.2461 20.3108L23.9417 20.5377L24.9628 25.3034L29.3882 24.1687L33.2461 20.3108Z" fill="#D87C30"/>
<path fill-rule="evenodd" clip-rule="evenodd" d="M33.2461 20.4243L29.3882 24.0553V27.6863L33.2461 20.4243Z" fill="#EA8D3A"/>
<path fill-rule="evenodd" clip-rule="evenodd" d="M29.3887 24.1687L24.8499 25.3034L23.3747 30.1826L24.3961 30.7499L29.3887 27.7997V24.1687Z" fill="#F89D35"/>
<path fill-rule="evenodd" clip-rule="evenodd" d="M29.3891 27.7998L30.2969 34.8349L24.3965 30.75L29.3891 27.7998Z" fill="#EB8F35"/>
<path fill-rule="evenodd" clip-rule="evenodd" d="M23.9415 20.5378L23.374 30.1828L25.0762 25.2468L23.9415 20.5378Z" fill="#EA8E3A"/>
<path fill-rule="evenodd" clip-rule="evenodd" d="M34.6074 27.9134L29.3879 27.7998L30.2956 34.8349L34.6074 27.9134Z" fill="#D87C30"/>
<path fill-rule="evenodd" clip-rule="evenodd" d="M39.9412 37.8986L30.2965 34.8348L34.6083 27.9133L42.4375 28.4806L39.9412 37.8986Z" fill="#EB8F35"/>
<path fill-rule="evenodd" clip-rule="evenodd" d="M24.6225 11.6873L29.5015 15.7721L33.2461 20.3109L23.9417 20.6514L24.6225 11.6873Z" fill="#E8821E"/>
<path fill-rule="evenodd" clip-rule="evenodd" d="M26.4377 22.5803L25.1895 25.1902L29.6148 24.0555L26.4377 22.5803Z" fill="#393939"/>
<path fill-rule="evenodd" clip-rule="evenodd" d="M40.0547 0L24.623 11.6872L27.2326 5.33292L40.0547 0Z" fill="#E88F35"/>
<path fill-rule="evenodd" clip-rule="evenodd" d="M40.0552 0L42.0977 6.24077L40.963 13.0489L41.7573 13.5028L40.6226 14.524L41.5303 15.3182L40.2822 16.4529L41.0764 17.1337L39.2609 19.4031L30.7508 16.7933C26.5903 13.4649 24.5479 11.7629 24.6235 11.6873C24.6992 11.6116 29.8431 7.71586 40.0552 0Z" fill="#8E5A30"/>
</svg>
