<svg width="17" height="17" viewBox="0 0 17 17" fill="none" xmlns="http://www.w3.org/2000/svg">
<path fill-rule="evenodd" clip-rule="evenodd" d="M8.50935 8.9981L14.0947 3.41275C14.2707 3.2368 14.5154 3.1467 14.7636 3.1671C15.0119 3.18665 15.2388 3.31415 15.385 3.51645C15.385 3.51645 15.4063 3.54705 15.408 3.54875C16.4093 4.9436 17 6.65295 17 8.5C17 13.1912 13.1912 17 8.5 17C3.80885 17 0 13.1912 0 8.5C0 3.80885 3.80885 0 8.5 0C9.8566 0 11.1401 0.31875 12.2782 0.8857C12.699 1.09395 12.8699 1.6048 12.6608 2.0247C12.4517 2.4446 11.9417 2.6163 11.5218 2.4072C10.6114 1.95415 9.5846 1.7 8.5 1.7C4.74725 1.7 1.7 4.74725 1.7 8.5C1.7 12.2528 4.74725 15.3 8.5 15.3C12.2528 15.3 15.3 12.2528 15.3 8.5C15.3 7.3729 15.0255 6.3087 14.5384 5.37285L9.11115 10.801C8.7788 11.1333 8.24075 11.1333 7.9084 10.801L5.3584 8.25095C5.0269 7.91945 5.0269 7.38055 5.3584 7.04905C5.69075 6.71755 6.2288 6.71755 6.56115 7.04905L8.50935 8.9981Z" fill="#F59855"/>
</svg>
