<svg width="328" height="264" viewBox="0 0 328 264" fill="none" xmlns="http://www.w3.org/2000/svg">
<g clip-path="url(#clip0_397_13059)">
<path d="M291.51 98.5674C291.492 98.5725 291.465 98.5809 291.445 98.5864C291.455 98.5842 291.465 98.5819 291.475 98.5797C291.487 98.5759 291.499 98.5721 291.51 98.5674Z" fill="#FFF9B5"/>
<path d="M81.9737 234.587C87.3197 228.692 92.9096 223.022 98.6646 217.527C97.4322 214.251 96.5225 210.707 96.0276 207.132C83.9261 220.914 72.7585 235.524 61.9138 250.341L61.9124 250.342C71.1938 239.174 77.0856 233.783 79.5951 231.682C81.0525 229.973 82.5225 228.276 84.0169 226.602C87.4 222.81 90.8523 219.078 94.436 215.476C91.0915 219.301 87.7578 223.129 84.4735 227C82.7935 228.983 81.1159 230.968 79.4521 232.963L60.6086 262.181C63.7382 257.274 67.143 252.546 70.7067 247.94C74.3334 243.385 78.0471 238.892 81.9737 234.587Z" fill="#FFF9B5"/>
<path d="M198.551 52.8708C200.403 51.1099 202.409 49.5118 204.524 48.0648C206.651 46.6322 208.887 45.3609 211.326 44.3809C208.711 44.7222 206.194 45.7302 203.878 47.0118C201.55 48.2949 199.413 49.9077 197.467 51.7196C195.543 53.5542 193.804 55.5962 192.401 57.8569C190.994 60.1067 189.891 62.5712 189.365 65.1521C190.512 62.7874 191.871 60.5977 193.417 58.5534C194.97 56.518 196.682 54.6118 198.551 52.8708Z" fill="white"/>
<path d="M202.413 42.8995C199.667 44.1284 197.186 45.9219 194.993 47.9888C192.818 50.0736 190.9 52.4673 189.569 55.1674C191.423 52.8066 193.385 50.5953 195.538 48.5622C197.68 46.5168 199.988 44.6673 202.413 42.8995Z" fill="white"/>
<path d="M236.95 188.121C235.538 188.457 234.104 188.51 232.678 188.376C231.25 188.234 229.829 187.891 228.413 187.435C226.999 186.963 225.614 186.362 224.145 185.81C225.253 186.909 226.526 187.847 227.937 188.569C229.351 189.277 230.902 189.793 232.524 189.95C234.141 190.116 235.821 189.908 237.327 189.297C238.831 188.685 240.151 187.706 241.127 186.484C239.731 187.196 238.36 187.78 236.95 188.121Z" fill="white"/>
<path d="M237.999 193.166C236.282 193.59 234.52 193.701 232.774 193.516C231.023 193.359 229.294 192.899 227.579 192.33C225.869 191.734 224.204 190.971 222.465 190.246C223.844 191.518 225.396 192.618 227.103 193.465C228.813 194.306 230.681 194.884 232.621 195.09C234.557 195.269 236.565 195.064 238.377 194.341C240.188 193.629 241.79 192.486 243.014 191.061C241.37 191.977 239.715 192.725 237.999 193.166Z" fill="white"/>
<path d="M182.674 192.025C182.164 193.217 181.523 194.353 180.782 195.423C180.03 196.485 179.182 197.49 178.172 198.366C179.358 197.742 180.404 196.838 181.27 195.797C182.146 194.76 182.85 193.582 183.399 192.338C183.93 191.087 184.305 189.762 184.437 188.406C184.58 187.056 184.465 185.664 184.012 184.402C184.162 185.732 184.059 187.043 183.826 188.318C183.579 189.593 183.192 190.837 182.674 192.025Z" fill="white"/>
<path d="M123.632 125.35C123.342 128.308 123.883 131.402 125.422 133.917C125.267 132.449 125.119 131.052 125.064 129.656C125.009 128.261 125.08 126.878 125.207 125.505C125.346 124.131 125.558 122.763 125.874 121.406C126.2 120.047 126.576 118.705 127.181 117.369C126.035 118.321 125.265 119.662 124.699 121.025C124.134 122.401 123.773 123.864 123.632 125.35Z" fill="white"/>
<path d="M122.69 121.079C123.204 119.292 123.944 117.59 124.878 115.908C123.439 117.21 122.483 118.997 121.93 120.859C121.388 122.732 121.284 124.739 121.718 126.62C121.825 125.659 121.922 124.724 122.07 123.799C122.227 122.877 122.426 121.969 122.69 121.079Z" fill="white"/>
<path d="M108.647 235.107C106.038 233.744 103.638 231.987 101.664 229.716C103.137 232.369 105.606 234.394 108.281 235.808C110.975 237.198 114.002 238.076 117.025 237.959C115.54 237.712 114.106 237.324 112.706 236.853C111.31 236.37 109.949 235.796 108.647 235.107Z" fill="white"/>
<path d="M110.277 239.446C107.667 238.083 105.268 236.326 103.293 234.055C104.766 236.708 107.235 238.734 109.91 240.147C112.604 241.537 115.631 242.415 118.654 242.298C117.168 242.052 115.734 241.662 114.335 241.192C112.939 240.709 111.578 240.134 110.277 239.446Z" fill="white"/>
<path d="M245.372 122.829C245.717 141.943 240.409 152.214 235.772 157.505L234.806 158.609L234.415 157.194C234.229 156.524 233.254 154.405 231.276 153.503C229.85 152.852 228.19 152.97 226.341 153.851L225.041 154.471L225.216 153.04C225.794 148.295 224.871 144.676 222.617 142.853C220.742 141.334 218.067 141.112 214.883 142.207L212.522 143.019L213.984 140.995C216.286 137.807 219.494 131.433 215.126 124.555L214.779 124.008L215.245 123.56C223.781 115.34 220.388 106.761 217.394 99.1931L217.203 98.71L217.569 98.3425C222.629 93.2673 225.093 84.0247 223.185 77.2919C222.592 75.8112 221.954 74.3536 221.061 73.1518C220.172 71.9516 218.966 71.0705 217.499 70.9956C216.037 70.9245 214.493 71.5207 213.106 72.3343C211.714 73.1668 210.418 74.2069 209.207 75.349C210.195 74.0093 211.333 72.7565 212.682 71.7117C214.015 70.6728 215.617 69.782 217.506 69.6941C218.44 69.6474 219.412 69.8768 220.258 70.3154C221.112 70.7525 221.804 71.4112 222.384 72.1067C222.972 72.8039 223.424 73.5812 223.792 74.3741C224.034 74.8584 224.225 75.3581 224.395 75.8621C226.552 74.4155 229.36 71.4355 231.194 67.8613L232.682 64.9619L232.69 68.2206C232.704 74.0994 240.706 83.6164 240.786 83.7124L241.098 84.0807L240.914 84.5268C240.898 84.5633 239.405 88.1898 238.695 91.8126C238.63 92.1399 238.648 92.5004 238.718 92.8952C241.923 91.3276 245.153 89.8095 248.413 88.3604L251.713 86.916C253.442 79.2523 255.191 69.3884 253.937 65.067C252.834 61.2602 250.689 58.5183 247.9 57.3454C245.279 56.2441 242.219 56.5518 239.063 58.2522L237.447 59.1188L237.924 57.3482C239.468 51.6201 238.521 47.6241 235.185 45.7928C234.629 45.4883 233.673 45.5526 232.559 45.9714C229.784 47.0122 226.224 50.1685 224.588 54.2383C225.675 53.8414 226.845 53.6475 228.012 53.7603C229.798 53.911 231.418 54.8642 232.436 56.1642C230.977 55.3667 229.465 54.9135 227.975 54.9951C226.488 55.066 225.063 55.6066 223.765 56.3786C222.469 57.1595 221.279 58.1625 220.255 59.3259C219.257 60.504 218.323 61.7934 217.989 63.4149C217.803 62.5987 217.923 61.7125 218.166 60.8971C218.425 60.0811 218.8 59.3016 219.271 58.5862C220.207 57.1535 221.46 55.9151 222.955 55.0181C223.01 54.9848 223.069 54.9554 223.125 54.9226L223.055 54.8336C218.705 49.2929 213.695 48.8301 207.288 53.3742C200.126 58.4541 189.151 73.0527 192.907 95.7427C193.295 95.6861 193.687 95.6417 194.084 95.6299C194.747 95.5934 195.416 95.631 196.085 95.7015C196.631 95.7795 197.172 95.9046 197.707 96.0632C197.406 95.1946 197.164 94.3065 196.996 93.3979C196.696 91.7169 196.601 89.9469 197.052 88.2171C197.299 87.3626 197.647 86.5174 198.205 85.8031L198.631 85.2782C198.775 85.1077 198.97 84.9832 199.138 84.8351C199.313 84.6959 199.481 84.5486 199.661 84.4218L200.247 84.1146C201.835 83.3369 203.573 83.2956 205.188 83.4738C203.562 83.6608 201.948 84.0122 200.694 84.8779C199.429 85.7207 198.681 87.0619 198.43 88.5237C198.167 89.9908 198.33 91.5519 198.664 93.0565C199.01 94.566 199.556 96.0416 200.246 97.4324L201.818 100.601L198.877 98.5654C198.533 98.3271 197.967 98.0655 197.461 97.8888C196.937 97.7005 196.386 97.5697 195.827 97.4747C195.266 97.391 194.696 97.3286 194.119 97.335C193.546 97.3314 192.97 97.3784 192.39 97.4347C191.993 97.5151 191.628 97.6385 191.295 97.7974C189.5 98.6536 188.593 100.525 188.14 102.07C186.015 109.311 189.485 122.685 198.797 131.665L199.464 132.308L198.724 132.867C196.897 134.245 196.131 135.81 196.51 137.393C196.943 139.198 198.735 140.55 200.218 140.814L200.989 140.951L200.86 141.724C199.181 151.738 201.878 162.958 207.57 169.643C210.598 173.199 214.284 175.238 218.301 175.62C217.792 174.719 217.368 173.775 217.046 172.798C216.607 171.453 216.349 170.046 216.332 168.617C215.331 168.225 214.35 167.766 213.432 167.179C212.39 166.557 211.43 165.783 210.575 164.9C208.859 163.147 207.608 160.871 207.212 158.435C206.782 156.003 207.25 153.489 208.331 151.35C208.87 150.277 209.568 149.282 210.439 148.465C211.293 147.639 212.325 146.972 213.466 146.687C212.369 147.106 211.444 147.841 210.698 148.711C209.945 149.576 209.368 150.579 208.929 151.624C208.052 153.722 207.846 156.061 208.327 158.219C208.803 160.388 210.017 162.331 211.639 163.834C213.226 165.387 215.174 166.544 217.169 167.652L217.522 167.847L217.528 168.208C217.554 169.606 217.866 171.011 218.362 172.335C218.858 173.65 219.543 174.893 220.394 175.988L220.412 176.012C226.404 183.98 232.847 182.583 237.792 180.473C242.926 178.29 247.621 168.145 246.453 157.603C246.224 157.664 245.995 157.725 245.763 157.772C245.191 157.901 244.609 157.971 244.033 158.02C242.88 158.091 241.718 158.031 240.639 157.703C241.759 157.77 242.855 157.558 243.888 157.242C244.402 157.07 244.906 156.883 245.386 156.646C245.828 156.44 246.248 156.195 246.659 155.943L246.663 155.941C252.381 151.873 251.678 146.485 250.75 143.636C249.988 141.299 248.516 141.061 248.454 141.052L247.416 140.902L247.83 139.943C249.801 135.532 254.562 123.762 254.368 119.254C251.352 120.409 248.356 121.606 245.372 122.829ZM244.371 70.3684C244.268 68.8908 244.012 67.4421 243.617 66.033C243.21 64.6297 242.679 63.258 241.966 61.9753C241.237 60.7001 240.373 59.5076 239.148 58.5223C240.688 58.9146 242.013 60.0284 242.995 61.2902C243.983 62.5701 244.701 64.0494 245.141 65.6C245.58 67.1516 245.734 68.7811 245.604 70.3762C245.475 71.9696 245.054 73.5375 244.294 74.9131C244.424 73.3463 244.473 71.8489 244.371 70.3684ZM245.673 77.0566C246.122 76.0843 246.521 75.1064 246.883 74.1013C247.23 73.0924 247.568 72.071 247.884 71.0255C248.197 69.9784 248.51 68.9218 248.878 67.8228C249.169 68.9523 249.194 70.1122 249.098 71.2555C248.997 72.3996 248.761 73.5377 248.374 74.6329C247.983 75.7268 247.419 76.7689 246.719 77.7057C246.004 78.6348 245.096 79.4277 244.055 79.9327C244.66 78.9344 245.206 78.0215 245.673 77.0566ZM209.107 146.375C208.571 146.86 208.096 147.361 207.662 147.902C207.226 148.443 206.834 149.025 206.447 149.651C206.05 150.276 205.712 150.953 205.236 151.656C204.895 150.022 205.351 148.267 206.428 146.911C207.503 145.56 209.213 144.715 210.886 144.884C210.242 145.434 209.637 145.877 209.107 146.375Z" fill="#D3D4D6"/>
<path d="M248.373 74.634C248.761 73.5387 248.997 72.4006 249.097 71.2566C249.194 70.1141 249.168 68.9534 248.878 67.8239C248.509 68.9228 248.196 69.9794 247.883 71.0265C247.567 72.072 247.23 73.0924 246.883 74.1024C246.52 75.1074 246.122 76.0854 245.672 77.0576C245.205 78.0233 244.659 78.9355 244.053 79.935C245.094 79.4301 246.003 78.6369 246.717 77.7081C247.419 76.7699 247.982 75.7279 248.373 74.634Z" fill="white"/>
<path d="M245.601 70.3776C245.732 68.7826 245.578 67.153 245.138 65.6014C244.699 64.0509 243.982 62.5712 242.992 61.2916C242.01 60.029 240.687 58.9157 239.146 58.5237C240.37 59.509 241.235 60.7023 241.963 61.9767C242.678 63.2592 243.208 64.6311 243.615 66.0345C244.009 67.4435 244.266 68.8914 244.369 70.3698C244.472 71.8501 244.422 73.3467 244.29 74.9161C245.052 73.5389 245.473 71.9703 245.601 70.3776Z" fill="white"/>
<path d="M206.429 146.912C205.352 148.268 204.896 150.023 205.236 151.658C205.713 150.954 206.052 150.277 206.447 149.652C206.835 149.027 207.227 148.445 207.662 147.903C208.098 147.362 208.572 146.86 209.107 146.376C209.637 145.878 210.242 145.435 210.887 144.886C209.213 144.716 207.504 145.561 206.429 146.912Z" fill="white"/>
<path d="M172.752 189.294C173.672 187.852 174.49 186.352 175.222 184.821C175.944 183.315 176.562 181.767 177.042 180.204C177.12 179.909 180.202 168.104 180.183 156.286C179.119 156.95 178.062 157.625 177.026 158.333L174.927 159.722C175.21 163.646 175.144 167.776 174.618 171.001L174.525 171.575L173.949 171.657C172.864 171.811 170.995 173.021 169.257 175.372C166.914 178.542 165.878 182.319 166.415 185.734L166.768 187.985L165.096 186.439C165.087 186.431 163.648 185.174 160.606 184.958L159.568 184.884L159.916 183.904C161.035 180.748 157.754 177.621 154.806 175.553L154.131 175.08L154.631 174.424C156.79 171.593 157.549 168.806 156.826 166.362C156.019 163.636 153.446 161.428 149.387 159.976L148.095 159.514L149.141 158.627C151.811 156.363 153.958 152.625 151.977 148.925L151.641 148.299L152.228 147.898C155.636 145.567 157.876 138.93 156.838 134.239L156.728 133.745L157.13 133.439C161.229 130.314 161.481 126.726 161.49 126.576L161.491 126.55C161.555 125.651 161.36 124.668 160.987 123.728C160.595 122.755 160.058 121.806 159.392 120.943C160.248 121.624 161.017 122.43 161.681 123.347C162.224 124.114 162.676 124.989 162.93 125.976C164.036 126.334 166.704 127.548 168.683 131.314C169.451 132.774 169.918 134.643 170.266 136.646C171.005 136.063 171.744 135.479 172.483 134.895C173.27 134.286 174.065 133.689 174.858 133.089C173.208 129.8 171.974 128.837 171.952 128.822L171.517 128.497L171.656 127.967C171.677 127.89 173.761 120.233 170.007 116.142C168.847 114.877 167.628 114.218 166.385 114.181C164.618 114.13 163.323 115.363 163.31 115.376L162.346 116.31L161.992 115.015C161.904 114.689 159.761 107.033 153.781 108.473C147.282 110.038 144.774 117.194 145.174 123.591L145.243 124.705C145.858 123.979 146.557 123.315 147.362 122.775C148.378 122.118 149.548 121.614 150.786 121.525C152.02 121.419 153.251 121.711 154.296 122.254C155.339 122.809 156.218 123.578 156.923 124.46C155.981 123.835 155.018 123.281 153.996 122.971C152.985 122.643 151.936 122.571 150.948 122.75C148.965 123.151 147.284 124.531 146.056 126.211C144.801 127.891 143.949 129.893 143.457 131.975C142.983 134.067 142.895 136.27 143.38 138.478C142.269 136.492 141.96 134.069 142.244 131.766C142.519 129.476 143.37 127.247 144.74 125.336L143.769 124.138C139.353 118.692 135.661 116.597 132.796 117.909C132.788 117.913 132.78 117.917 132.771 117.921C131.89 118.34 131.03 119.603 130.41 121.392C128.71 126.291 128.573 135.568 133.609 145.815C134.256 145.546 134.94 145.355 135.655 145.328C136.673 145.28 137.675 145.593 138.481 146.108C139.295 146.623 139.946 147.307 140.48 148.047C141.012 148.79 141.436 149.598 141.739 150.441C141.316 149.652 140.786 148.931 140.177 148.301C139.567 147.674 138.869 147.14 138.107 146.806C137.348 146.468 136.533 146.357 135.773 146.509C135.038 146.65 134.365 147.018 133.746 147.467C131.233 149.866 130.209 154.851 131.255 159.618C132.315 164.445 135.216 167.98 139.213 169.319L139.421 169.388C139.135 167.991 138.993 166.566 139.064 165.142C139.167 162.977 139.712 160.742 141.001 159.014C140.308 161.037 140.178 163.101 140.295 165.136C140.436 167.169 140.829 169.182 141.496 171.095C142.139 173.014 143.058 174.839 144.262 176.461C145.477 178.078 147.019 179.46 148.917 180.452C146.796 180.092 144.818 178.87 143.321 177.261C141.798 175.653 140.721 173.675 139.999 171.608C139.875 171.232 139.775 170.85 139.672 170.468C136.493 180.919 138.555 189.053 146.167 196.051C154.116 203.359 160.291 198.526 160.55 198.318L160.998 197.956L161.483 198.269C161.751 198.442 168.182 202.446 175.603 195.113C181.377 189.407 179.221 184.1 177.911 181.946C177.3 183.082 176.629 184.171 175.908 185.221C174.931 186.643 173.884 188.009 172.752 189.294ZM142.071 181.958C143.077 182.412 144.006 182.816 144.953 183.146C145.9 183.472 146.856 183.72 147.831 183.912C148.806 184.101 149.795 184.253 150.81 184.367L153.948 184.684C152.976 185.207 151.9 185.487 150.814 185.603C149.725 185.719 148.609 185.685 147.521 185.464C146.431 185.253 145.371 184.842 144.422 184.256C143.475 183.672 142.639 182.901 142.071 181.958ZM151.138 189.146C150.299 189.311 149.434 189.327 148.586 189.203C147.74 189.079 146.906 188.816 146.148 188.398C145.4 187.973 144.705 187.398 144.295 186.626C145.121 186.881 145.854 187.086 146.6 187.243C147.339 187.405 148.073 187.531 148.814 187.638C149.554 187.743 150.301 187.832 151.064 187.904C151.831 187.982 152.598 188.032 153.462 188.094C152.803 188.665 151.971 188.972 151.138 189.146Z" fill="#D3D4D6"/>
<path d="M147.522 185.464C148.61 185.684 149.726 185.718 150.815 185.602C151.902 185.487 152.978 185.206 153.949 184.683L150.811 184.366C149.797 184.253 148.807 184.1 147.832 183.911C146.857 183.719 145.901 183.472 144.955 183.145C144.007 182.816 143.079 182.412 142.072 181.957C142.64 182.9 143.476 183.671 144.423 184.255C145.372 184.841 146.432 185.253 147.522 185.464Z" fill="white"/>
<path d="M148.814 187.637C148.073 187.53 147.339 187.404 146.6 187.242C145.854 187.085 145.121 186.88 144.295 186.625C144.705 187.397 145.4 187.973 146.149 188.397C146.906 188.816 147.74 189.079 148.587 189.203C149.434 189.326 150.299 189.31 151.138 189.145C151.971 188.971 152.803 188.664 153.463 188.092C152.599 188.03 151.832 187.98 151.065 187.902C150.302 187.831 149.556 187.743 148.814 187.637Z" fill="white"/>
<path d="M120.087 200.202C121.035 204.087 121.724 208.164 121.641 210.844C122.064 210.8 122.479 210.808 122.879 210.849C123.662 210.933 124.403 211.141 125.099 211.432C125.793 211.726 126.443 212.103 127.024 212.562C127.601 213.021 128.116 213.57 128.451 214.209C128.004 213.643 127.422 213.221 126.806 212.893C126.188 212.566 125.527 212.333 124.858 212.186C124.188 212.041 123.505 211.985 122.854 212.036C122.226 212.086 121.627 212.249 121.164 212.528C118.873 213.842 118.148 216.19 117.982 216.865C118.465 217.986 118.776 219.172 118.829 220.359C118.901 221.669 118.686 222.944 118.335 224.146C118.429 222.894 118.365 221.642 118.047 220.479C117.769 219.413 117.269 218.444 116.651 217.58L116.51 217.378C116.49 217.35 114.537 214.585 112.545 213.701L112.032 213.473L112.077 212.914C112.318 209.939 112.044 205.204 106.913 198.456L106.563 197.996L106.894 197.522C108.318 195.484 109.211 189.876 105.544 183.504L105.265 183.02L105.628 182.596C108.77 178.917 107.751 173.859 107.74 173.809L107.639 173.326L108.028 173.021C108.421 172.71 109.084 172.015 109.18 171.475L109.69 168.592L110.701 171.34C111.8 174.328 115.851 176.078 115.893 176.095L116.472 176.341L116.364 176.961C116.359 176.987 115.918 179.599 116.733 182.007C116.846 182.341 116.975 182.682 117.105 183.028C118.994 181.165 120.906 179.323 122.827 177.493C122.926 170.669 122.232 164.245 119.268 160.585C118.183 159.245 116.819 158.743 115.941 159.364C115.264 159.878 114.687 160.532 114.271 161.309C113.843 162.101 113.579 163.006 113.45 163.944C113.207 165.828 113.447 167.81 113.977 169.698C113.2 167.893 112.676 165.938 112.66 163.894C112.661 162.875 112.81 161.827 113.185 160.827C113.509 159.953 114.027 159.135 114.677 158.428C114.723 156.216 113.6 154.17 112.492 152.969C111.652 152.059 110.716 151.486 110.049 151.473C108.377 151.438 105.193 154.176 103.777 161.65L103.605 162.556C103.884 162.338 104.176 162.136 104.501 161.946C105.155 161.563 105.939 161.361 106.681 161.427C108.16 161.561 109.402 162.429 110.02 163.583C108.955 162.873 107.737 162.526 106.688 162.633C106.167 162.709 105.698 162.884 105.294 163.187C104.86 163.517 104.376 163.92 103.99 164.313C103.197 165.11 102.629 166.063 102.216 167.179C101.817 168.299 101.538 169.515 101.199 170.774C100.871 169.512 100.792 168.195 101.007 166.863C101.111 166.194 101.339 165.537 101.635 164.9C101.948 164.271 102.376 163.688 102.87 163.198C102.954 163.116 103.042 163.05 103.127 162.973L102.37 161.982C100.073 158.974 98.9847 159.664 98.1941 160.168C97.3737 160.688 96.0177 165.045 97.5308 172.74L97.8583 174.405L96.3721 173.586C94.9655 172.811 93.0267 172.07 91.5591 172.77C91.4701 172.813 91.3835 172.86 91.2989 172.913C89.8701 173.805 89.1096 176.231 89.266 179.402C89.5352 184.878 91.9055 191.133 96.5864 193.303C96.7827 192.809 97.0079 192.332 97.2872 191.895C97.5073 191.547 97.7462 191.214 98.0059 190.899C98.1292 190.75 98.2532 190.609 98.3823 190.47C97.7244 189.933 97.1678 189.345 96.6436 188.704C95.9827 187.886 95.4224 186.992 94.9846 186.046C94.0969 184.158 93.728 182.075 93.805 180.044C93.9217 182.075 94.4843 184.065 95.4988 185.777C95.9997 186.635 96.6081 187.424 97.295 188.126C97.9735 188.819 98.7674 189.47 99.5534 189.915L100.172 190.265L99.6575 190.836C99.4452 191.072 99.2125 191.372 99.0167 191.661C98.8163 191.956 98.6366 192.263 98.4766 192.577C98.1524 193.202 97.9326 193.864 97.8181 194.524C94.9149 208.628 102.561 228.679 111.927 231.52C115.27 232.533 117.478 231.742 118.66 229.104C117.975 228.615 117.437 228 117.027 227.343C116.752 226.907 116.525 226.451 116.352 225.979C116.196 225.508 116.023 225.012 116.097 224.517C116.156 225 116.443 225.408 116.703 225.796C116.979 226.18 117.295 226.529 117.637 226.839C118.276 227.429 119.032 227.842 119.773 228.011C122.146 228.314 124.017 227.819 125.331 226.543C127.036 224.885 127.37 222.317 127.304 221.515C127.185 221.045 127.048 220.573 126.837 220.13C126.624 219.629 126.326 219.168 125.99 218.727C125.307 217.857 124.394 217.106 123.312 216.658C124.471 216.854 125.591 217.394 126.55 218.168C127.023 218.561 127.476 219.002 127.849 219.51C128.072 219.793 128.265 220.097 128.446 220.41C130.768 219.483 132.22 218.125 132.749 216.355C133.347 214.353 132.578 212.328 131.953 211.52C131.73 211.231 131.126 210.767 130.426 210.229C127.796 208.211 123.332 204.782 122.086 198.55C121.421 199.099 120.753 199.649 120.087 200.202Z" fill="#D3D4D6"/>
<path d="M94.4386 215.476C90.8549 219.079 87.4026 222.81 84.0195 226.602C82.5243 228.277 81.0544 229.974 79.5977 231.682C77.7566 233.841 75.9364 236.018 74.1321 238.207C70.9501 242.171 67.8061 246.168 64.8188 250.283C61.8365 254.4 58.9556 258.598 56.3903 262.987C57.8265 260.891 59.2498 258.79 60.7634 256.752C62.2388 254.689 63.7621 252.659 65.3065 250.647C68.3875 246.617 71.5197 242.624 74.7445 238.707C76.2947 236.776 77.869 234.865 79.4547 232.963C81.1193 230.968 82.7959 228.982 84.4761 227C87.7602 223.129 91.0941 219.301 94.4386 215.476Z" fill="white"/>
<path d="M281.585 103.483C280.181 103.858 278.78 104.24 277.38 104.628C273.768 105.707 270.16 106.806 266.603 108.06C264.825 108.687 263.059 109.351 261.301 110.032L258.693 111.128C257.831 111.51 256.976 111.909 256.124 112.309C259.641 110.959 263.209 109.766 266.795 108.634C270.383 107.508 273.977 106.4 277.6 105.388C281.206 104.321 284.84 103.347 288.475 102.38C288.505 102.373 288.535 102.366 288.565 102.358C290.351 101.875 292.144 101.419 293.943 100.99C295.768 100.538 297.598 100.095 299.462 99.8199C295.693 100.101 292.007 100.984 288.329 101.79C286.068 102.31 283.823 102.885 281.585 103.483Z" fill="white"/>
<path d="M276.366 103.071C278.249 102.662 280.116 102.201 281.981 101.741C282.206 101.686 282.432 101.631 282.657 101.576L288.919 100.008L295.172 98.4139C296.214 98.1479 297.258 97.8864 298.306 97.6474C299.35 97.3816 300.398 97.1503 301.462 96.9648C299.295 97.0196 297.162 97.4309 295.04 97.8191C293.845 98.0438 292.658 98.3046 291.475 98.5788C291.465 98.5811 291.455 98.5834 291.446 98.5856C290.537 98.7968 289.63 99.0147 288.725 99.2405C287.98 99.4337 287.238 99.6354 286.496 99.8374C285.156 100.201 283.82 100.576 282.495 100.991C280.435 101.629 278.384 102.3 276.366 103.071Z" fill="white"/>
<path d="M120.687 173.09C118.948 172.929 117.528 171.997 116.59 170.568C114.464 172.331 111.517 170.626 109.548 172.012C109.616 172.071 109.689 172.122 109.752 172.196C109.76 172.206 109.767 172.216 109.776 172.227C110.439 172.145 111.132 172.413 111.508 173.201C112.618 175.604 114.899 176.526 115.591 179.071C116.267 181.561 116.507 184.289 117.1 186.833C118.206 191.569 119.163 196.748 119.299 201.618C119.301 201.683 119.293 201.74 119.288 201.8C119.516 202.63 119.854 203.456 120.007 204.262C120.303 205.829 120.171 207.432 120.404 209.006C120.452 209.329 120.437 209.63 120.387 209.914C123.882 208.435 127.589 208.829 131.334 209.667C131.268 209.535 131.211 209.405 131.15 209.274C127.984 207.853 125.977 205.172 124.886 202.044C122.819 199.081 123.132 195.219 123.504 191.743C123.315 187.95 123.637 184.108 123.747 180.181C123.757 179.823 123.858 179.536 124.01 179.301C123.681 177.107 123.367 174.914 123.454 172.701C122.387 173.018 121.081 173.127 120.687 173.09Z" fill="#AFAFAF"/>
<path d="M131.144 209.269C130.998 209.204 130.86 209.129 130.719 209.058C130.138 209.695 129.785 210.639 129.755 211.519C129.701 213.066 130.231 214.607 130.041 216.143C129.852 217.679 128.433 219.277 126.967 218.779C125.771 218.173 124.575 217.565 123.378 216.959C125.328 219.147 125.222 222.86 123.151 224.934C121.081 227.008 117.368 227.119 115.177 225.173C115.658 227.129 114.718 229.348 112.978 230.365C111.415 231.278 109.803 230.939 108.199 230.492C108.192 230.581 108.202 230.667 108.203 230.755C108.248 230.754 108.289 230.747 108.334 230.748C108.481 230.751 108.629 230.754 108.776 230.757C110.036 230.78 110.775 231.498 111.054 232.401C112.229 232.986 113.964 232.944 115.089 232.737C117.07 232.373 117.742 231.044 119.222 229.885C121.99 227.716 126.79 227.676 128.343 224.12C128.089 222.906 128.535 221.475 129.74 220.902L130.276 220.646C130.643 220.471 131.047 220.403 131.453 220.415C132.134 219.616 133.258 216.896 133.412 215.933C133.783 213.619 132.102 211.333 131.144 209.269Z" fill="#AFAFAF"/>
<path d="M172.866 122.149C171.58 123.361 169.953 124.215 168.213 124.523C164.862 125.115 162.252 123.002 162.902 127.022C163.643 126.84 164.499 127.045 164.988 127.871C168.105 133.141 170.552 137.621 171.497 143.733C171.953 146.677 172.161 149.713 172.852 152.609C173.553 155.548 174.75 158.153 175.092 161.18C175.172 161.887 174.887 162.436 174.449 162.789C174.598 163.546 174.731 164.305 174.799 165.077C174.921 166.442 174.641 167.762 174.489 169.09C175.355 167.879 176.904 167.084 178.419 167.208C179.028 167.258 179.608 167.433 180.148 167.697C180.088 166.429 180.265 165.139 180.428 163.83C180.813 160.744 180.898 157.66 180.854 154.555C179.882 151.498 178.655 148.67 178.126 145.487C177.585 142.226 177.14 138.938 176.088 135.792C175.265 133.334 173.218 131.121 172.816 128.594C172.501 126.613 172.754 124.319 172.866 122.149Z" fill="#AFAFAF"/>
<path d="M175.055 185.541C173.259 188.202 171.385 190.941 168.664 192.644C165.943 194.348 162.124 194.737 159.655 192.683C158.63 195.272 156.229 197.125 153.582 197.843C151.929 198.292 149.161 198.181 148.993 199.617C149.25 199.663 149.512 199.778 149.77 200.001C150.897 200.981 152.124 201.442 153.397 201.581C154.926 201.064 156.528 201.143 158.084 200.918C158.828 200.53 159.58 200.154 160.345 199.79C161.083 199.438 161.748 199.622 162.212 200.044C163.865 200.008 165.54 200.248 167.201 199.99C172.763 199.127 178.053 195.352 180.272 190.115C181.722 186.696 179.407 184.301 178.825 180.974C178.775 180.685 178.74 180.393 178.721 180.105C177.499 181.918 176.277 183.729 175.055 185.541Z" fill="#AFAFAF"/>
<path d="M224.974 76.6614C224.98 76.657 224.983 76.6515 224.99 76.6468C226.922 75.1441 228.248 73.3391 229.569 71.3026C230.256 70.242 232.196 70.2456 232.663 71.5388C234.279 76.024 236.623 79.4214 239.062 83.4108C239.431 84.0133 239.606 84.6126 239.663 85.2112C240.485 83.9834 241.307 82.7554 242.129 81.5266C236.537 75.8429 233.041 68.1465 232.426 60.1974C232.288 61.4302 229.117 64.7995 228.517 65.4369C226.893 67.1618 225.053 68.4791 223.079 69.7587C220.598 71.3666 220.89 71.7919 222.813 74.084C223.533 74.9424 224.254 75.8015 224.974 76.6614Z" fill="#AFAFAF"/>
<path d="M252.617 94.0274C252.558 86.3491 254.302 78.727 255.289 71.1135C255.239 69.1625 255.189 67.2109 255.138 65.2591C254.027 72.4093 249.134 78.8587 242.548 81.8559C241.593 83.1165 240.638 84.3764 239.684 85.6371C239.689 87.5664 238.55 89.4974 238.29 91.5149C237.075 100.937 241.986 109.571 243.732 118.527C243.775 118.746 243.778 118.951 243.75 119.141C243.851 119.373 243.912 119.637 243.912 119.938C243.907 125.388 243.519 130.829 243.29 136.271C243.227 137.762 243.111 139.196 242.843 140.565C242.94 140.376 243.036 140.187 243.132 139.998C244.034 138.203 244.933 136.361 246.333 134.921C247.649 133.569 249.516 132.624 251.377 132.811C252.07 131.193 253.04 129.724 253.877 128.189C254.645 124.009 255.217 119.865 255.683 115.636C253.889 108.563 252.673 101.338 252.617 94.0274Z" fill="#AFAFAF"/>
<path d="M230.405 183.572C232.756 182.037 235.903 182.228 238.538 181.247C241.202 180.254 242.363 177.088 243.929 174.875C245.951 172.019 246.985 169.479 247.293 166.004C247.685 161.574 246.87 157.756 250 154.27C251.966 152.081 252.579 150.992 252.581 148.123C252.582 147.79 252.598 147.263 252.598 146.663C252.6 145.476 251.424 140.333 249.582 141.133C250.678 144.056 250.998 147.106 249.956 150.111C248.947 153.021 246.789 155.515 244.053 156.93C246.168 156.935 244.971 158.135 244.505 159.528C243.676 162.013 243.035 164.393 241.736 166.706C239.219 171.186 235.423 174.964 230.853 177.332C228.977 178.305 226.82 179.076 224.677 178.924C222.321 178.756 220.904 177.178 219.689 175.251C218.33 173.093 217.557 170.627 216.799 168.193C215.048 169.932 212.408 170.723 209.99 170.234C207.938 169.819 205.811 168.407 204.936 166.465C205.401 167.868 205.971 169.209 206.646 170.48C206.972 170.556 207.289 170.752 207.557 171.106C209.418 173.57 212.324 175.653 215.388 176.358C217.007 176.73 219.294 175.98 220.723 177.072C221.204 177.439 221.318 177.92 221.65 178.382C222.829 180.029 223.637 180.933 225.596 181.799C227.157 182.49 228.789 183.011 230.405 183.572Z" fill="#AFAFAF"/>
<path d="M133.58 187.556C134.821 186.59 136.073 185.637 137.32 184.68C136.285 180.391 136.503 175.702 137.99 170.552C137.656 170.418 137.333 170.264 137.014 170.102L136.103 170.881L133.692 173.073C132.321 174.339 130.929 175.586 129.568 176.863C129.515 176.912 129.462 176.962 129.408 177.011C129.238 177.171 129.064 177.326 128.897 177.487C128.895 177.488 128.894 177.488 128.894 177.489C127.778 178.523 126.677 179.572 125.583 180.629C125.452 180.756 125.321 180.883 125.189 181.01L125.189 181.003C121.768 184.318 118.428 187.722 115.063 191.101L115.064 191.104C114.848 191.321 114.632 191.537 114.415 191.753C114.413 191.755 114.411 191.757 114.409 191.759C113.052 193.119 111.689 194.474 110.313 195.815C111.668 194.383 113.015 192.944 114.363 191.503C118.96 186.589 123.548 181.663 128.355 176.938C128.358 176.936 128.361 176.933 128.363 176.931C129.9 175.386 131.519 173.925 133.094 172.419L135.476 170.179L136.13 169.601C135.606 169.279 135.107 168.92 134.634 168.524C132.593 170.352 130.567 172.197 128.553 174.055C123.668 178.561 118.862 183.149 114.163 187.847L114.164 187.848C114.013 188 113.857 188.148 113.707 188.299C113.701 188.305 113.695 188.311 113.689 188.317C112.351 189.658 111.034 191.019 109.714 192.377C109.723 194.74 109.202 196.676 108.502 197.933C110.435 200.545 111.671 202.876 112.458 204.941C113.778 203.788 115.112 202.651 116.445 201.514C116.85 201.168 117.255 200.821 117.661 200.478L117.663 200.486C120.12 198.405 122.595 196.348 125.092 194.317L125.092 194.312C126.089 193.504 127.087 192.697 128.09 191.896C129.511 190.759 130.937 189.629 132.37 188.509C132.37 188.51 132.371 188.511 132.372 188.513C132.775 188.196 133.174 187.871 133.58 187.556Z" fill="#FFF9B5"/>
<path d="M180.487 130.693C179.309 131.593 178.124 132.487 176.942 133.383C175.76 134.279 174.58 135.178 173.411 136.09C170.211 138.64 167.003 141.179 163.825 143.757C162.394 144.917 160.967 146.083 159.552 147.267C157.801 148.695 156.061 150.137 154.322 151.58C154.374 152.693 154.19 153.818 153.779 154.92C158.009 151.679 162.336 148.567 166.731 145.556L166.735 145.565C170.878 142.727 175.085 139.982 179.343 137.318L179.337 137.301C183.234 134.865 187.17 132.492 191.138 130.181L193.913 128.544C192.64 126.871 191.523 125.119 190.558 123.332C189.587 124.023 188.617 124.716 187.651 125.416C185.245 127.149 182.833 128.875 180.487 130.693Z" fill="#FFF9B5"/>
<path d="M199.183 142.184C197.184 141.526 195.442 139.739 194.968 137.765C194.686 136.589 194.627 134.38 197.066 132.185C196.303 131.413 195.585 130.609 194.902 129.785C194.845 129.817 194.788 129.848 194.731 129.881L191.931 131.547L186.435 134.783L186.316 134.853L183.754 136.361L183.509 136.506C183.038 136.778 182.571 137.054 182.106 137.336C181.643 137.618 181.183 137.907 180.728 138.204C180.416 138.403 180.102 138.601 179.79 138.8C176.441 140.937 173.074 143.048 169.752 145.225L166.084 147.751L164.388 148.919L161.705 150.767C160.808 151.379 159.913 151.994 159.052 152.655L153.825 156.542L152.172 157.759C151.855 158.166 151.505 158.564 151.121 158.951C154.988 160.586 157.475 162.975 158.345 165.911C158.636 166.895 158.727 167.916 158.638 168.96C159.656 168.242 160.668 167.513 161.691 166.801L165.277 164.308C166.47 163.473 167.666 162.642 168.894 161.856L172.493 159.496L176.207 157.061C176.81 156.652 177.42 156.254 178.034 155.862C179.263 155.079 180.509 154.324 181.757 153.57C182.38 153.193 183.005 152.816 183.627 152.437C184.252 152.063 184.876 151.686 185.497 151.307C187.364 150.169 189.225 149.021 191.125 147.941C193.761 146.467 196.386 144.972 199.026 143.505C199.073 143.065 199.119 142.623 199.183 142.184Z" fill="#FFF9B5"/>
<path d="M259.641 84.2485C258.709 84.6336 257.779 85.0251 256.858 85.4357L252.774 87.2059L248.732 89.0719C243.864 91.3138 239.062 93.6949 234.318 96.1857C234.317 96.1833 234.315 96.182 234.315 96.1796C229.736 98.5815 225.214 101.091 220.754 103.707C221.79 106.884 222.506 110.258 222.133 113.695L225.8 111.85C229.741 109.993 233.693 108.16 237.649 106.338L238.575 105.911L243.58 103.601L249.583 101.023L257.005 97.8382L261.587 95.8713C263.583 95.0003 265.62 94.2307 267.644 93.4278L273.72 91.0358L278.476 89.1765C277.723 89.2524 276.922 89.0735 276.208 88.456C275.431 87.7849 274.418 85.6683 274.501 84.5597C274.665 82.3888 276.054 80.5311 277.347 79.1475C278.661 77.7417 280.031 77.0736 281.836 75.9534C276.205 77.852 270.623 79.8881 265.086 82.0334C263.275 82.7798 261.452 83.4994 259.641 84.2485Z" fill="#FFF9B5"/>
<path d="M259.671 116.538C259.667 116.543 259.665 116.549 259.661 116.554C254.182 118.457 248.748 120.492 243.358 122.646L243.358 122.639C236.199 125.502 229.118 128.562 222.113 131.773L218.788 133.372C219.146 130.244 218.489 127.153 216.795 124.255C219.688 121.328 221.212 118.349 221.855 115.399L226.401 113.079C230.331 111.22 234.249 109.335 238.163 107.441L238.989 107.043L244.039 104.61L249.99 101.936L257.244 98.6733L261.891 96.5835C266.821 94.4025 271.788 92.3057 276.752 90.1981C279.799 88.9044 282.846 87.6067 285.881 86.2804L278.475 89.1747L273.719 91.034L267.642 93.426C265.619 94.2289 263.582 94.9985 261.586 95.8696L257.003 97.8364L249.581 101.022L243.579 103.599L238.573 105.909L237.648 106.336C233.692 108.158 229.739 109.99 225.799 111.848L222.132 113.694C222.505 110.256 221.788 106.882 220.753 103.705C225.213 101.089 229.735 98.5797 234.313 96.1779C234.314 96.1802 234.316 96.1816 234.316 96.184C239.06 93.6934 243.863 91.3121 248.731 89.0701L252.772 87.2041L256.857 85.434C257.778 85.0234 258.708 84.6326 259.64 84.2467C261.451 83.4984 263.274 82.7781 265.087 82.0311C270.623 79.8859 276.204 77.8499 281.836 75.9511C276.152 77.6869 270.52 79.5887 264.937 81.6391C263.177 82.3244 261.406 82.9845 259.645 83.6684C259.645 83.6687 259.645 83.6687 259.644 83.6689C258.634 84.0615 257.625 84.4605 256.626 84.882L253.511 86.1588C255.188 78.5065 256.743 69.0705 255.455 64.6277C254.215 60.3538 251.749 57.2502 248.511 55.8884C245.871 54.7784 242.9 54.8676 239.837 56.1355C241.273 49.0524 238.575 45.8519 235.944 44.4076C234.956 43.8653 233.592 43.8944 232 44.4918C229.161 45.5577 225.441 48.5697 223.445 52.8421C218.707 47.5496 213.107 47.3066 206.37 52.0867C198.899 57.387 187.424 72.5711 191.344 96.0759C189.101 96.8036 187.475 98.7069 186.618 101.626C185.128 106.703 186.196 114.582 189.897 122.053C188.865 122.781 187.834 123.509 186.807 124.243C184.877 125.623 182.952 127.009 181.052 128.428C180.568 128.789 180.078 129.141 179.6 129.509C178.449 130.381 177.291 131.246 176.136 132.114C174.896 129.701 173.853 128.458 173.299 127.908C173.737 126.025 174.975 119.216 171.171 115.068C169.703 113.47 168.1 112.638 166.405 112.595C165.042 112.562 163.911 113.056 163.169 113.511C161.938 110.189 158.774 105.637 153.408 106.93C146.783 108.527 143.797 115.044 143.563 121.458C139.226 116.655 135.387 114.976 132.136 116.466C130.805 117.108 129.704 118.591 128.913 120.87C127.102 126.09 126.921 135.941 132.27 146.703C129.612 149.604 128.582 154.828 129.706 159.954C130.374 162.994 131.716 165.575 133.571 167.524C132.893 168.137 132.207 168.74 131.533 169.356C129.141 171.54 126.768 173.744 124.412 175.968C124.38 169.416 123.511 163.311 120.497 159.587C119.244 158.041 117.637 157.314 116.239 157.56C116.055 155.543 115.133 153.494 113.654 151.892C112.498 150.64 111.195 149.908 110.078 149.888C107.538 149.839 104.221 152.931 102.56 159.776C100.786 157.976 99.1381 157.694 97.3453 158.83C95.6718 159.891 94.6119 164.629 95.704 171.51C93.6265 170.67 91.87 170.684 90.4592 171.567C88.4794 172.803 87.4944 175.613 87.6831 179.478C87.98 185.526 90.71 192.488 96.1415 194.849C95.5087 198.306 95.4541 202.037 95.8588 205.769C91.4192 210.917 87.1061 216.173 82.9236 221.528C75.636 230.928 68.6726 240.567 61.9108 250.34C61.9116 250.34 61.9113 250.339 61.9121 250.339C72.7569 235.522 83.9245 220.911 96.026 207.13C96.5208 210.705 97.4305 214.249 98.663 217.525C92.9074 223.021 87.3172 228.69 81.972 234.585C78.0455 238.889 74.3315 243.382 70.7051 247.937C67.1414 252.544 63.7366 257.272 60.607 262.179C63.8785 257.365 67.3937 252.73 71.0317 248.197C74.7431 243.724 78.5379 239.32 82.5408 235.107C87.8532 229.408 93.3882 223.921 99.0819 218.603C102.001 225.806 106.482 231.52 111.468 233.033C113.708 233.712 115.632 233.669 117.165 232.939C118.457 232.322 119.47 231.216 120.154 229.642C122.76 229.857 124.872 229.196 126.434 227.676C128.252 225.909 128.836 223.38 128.892 221.943C132.456 220.561 133.788 218.405 134.266 216.806C134.989 214.384 134.224 211.864 133.206 210.548C132.857 210.097 132.242 209.625 131.391 208.972C128.835 207.01 124.421 203.599 123.516 197.376C126.623 194.84 129.757 192.336 132.93 189.88C132.929 189.879 132.929 189.877 132.929 189.877C133.439 189.481 133.948 189.082 134.461 188.689C135.55 187.849 136.649 187.022 137.742 186.187C139.025 190.21 141.461 193.873 145.092 197.212C152.813 204.31 159.363 200.971 161.095 199.855C162.483 200.551 166.705 202.204 171.822 199.765C173.386 199.02 175.037 197.89 176.711 196.234C184.145 188.888 179.832 181.855 178.665 180.244C179.242 177.979 181.975 166.608 181.771 155.302C182.646 154.767 183.522 154.233 184.396 153.696C185.639 152.946 186.872 152.18 188.108 151.42C189.346 150.66 190.587 149.907 191.846 149.185C192.043 149.07 192.242 148.958 192.44 148.843C194.575 147.606 196.72 146.389 198.877 145.192C198.266 154.608 201.084 164.475 206.36 170.671C209.971 174.912 214.465 177.19 219.381 177.279C226.046 185.869 233.419 184.059 238.407 181.932C238.516 181.885 238.623 181.836 238.731 181.785C245.049 178.774 249.284 167.393 247.966 156.949C254.087 152.329 253.292 146.344 252.251 143.148C251.59 141.121 250.445 140.209 249.619 139.802C251.175 136.237 256.468 123.65 255.9 118.678C257.816 117.949 259.735 117.227 261.663 116.526C270.25 113.401 278.947 110.57 287.783 108.209C286.941 108.413 286.103 108.629 285.264 108.841C276.622 111.023 268.093 113.615 259.671 116.538ZM247.827 139.947L247.414 140.906L248.451 141.056C248.513 141.065 249.985 141.303 250.747 143.64C251.675 146.489 252.379 151.876 246.661 155.944L246.657 155.946C246.246 156.199 245.825 156.442 245.384 156.649C244.903 156.887 244.399 157.073 243.885 157.246C242.853 157.56 241.755 157.772 240.637 157.706C241.714 158.035 242.877 158.094 244.031 158.024C244.606 157.974 245.189 157.905 245.76 157.776C245.992 157.728 246.222 157.668 246.451 157.606C247.618 168.148 242.922 178.293 237.79 180.476C232.845 182.585 226.401 183.983 220.41 176.016L220.392 175.992C219.54 174.897 218.855 173.652 218.36 172.339C217.864 171.015 217.551 169.61 217.526 168.211L217.519 167.85L217.167 167.655C215.171 166.547 213.224 165.39 211.636 163.837C210.014 162.334 208.8 160.391 208.325 158.223C207.843 156.063 208.049 153.726 208.926 151.628C209.366 150.583 209.943 149.58 210.696 148.715C211.441 147.845 212.367 147.11 213.464 146.69C212.322 146.975 211.291 147.642 210.437 148.468C209.565 149.285 208.868 150.28 208.329 151.353C207.248 153.492 206.779 156.006 207.209 158.439C207.606 160.874 208.856 163.15 210.572 164.903C211.426 165.786 212.388 166.56 213.43 167.182C214.347 167.77 215.329 168.228 216.33 168.62C216.346 170.05 216.605 171.457 217.043 172.801C217.366 173.778 217.789 174.722 218.299 175.623C214.282 175.241 210.595 173.203 207.567 169.646C201.876 162.962 199.179 151.742 200.857 141.727L200.987 140.954L200.215 140.817C198.732 140.554 196.941 139.202 196.507 137.397C196.129 135.813 196.894 134.249 198.722 132.87L199.462 132.312L198.795 131.668C189.482 122.688 186.013 109.313 188.137 102.074C188.591 100.528 189.498 98.6569 191.293 97.8007C191.626 97.6418 191.991 97.5184 192.388 97.438C192.968 97.3817 193.543 97.3347 194.116 97.3383C194.694 97.3327 195.264 97.3943 195.825 97.478C196.384 97.5727 196.934 97.7038 197.459 97.8921C197.965 98.0688 198.53 98.3307 198.874 98.5687L201.816 100.604L200.244 97.4357C199.554 96.0457 199.008 94.5693 198.662 93.0598C198.328 91.5552 198.165 89.9941 198.427 88.527C198.678 87.0652 199.427 85.724 200.692 84.8812C201.946 84.0155 203.561 83.6638 205.186 83.477C203.57 83.2997 201.833 83.3402 200.245 84.1179L199.659 84.4251C199.478 84.5519 199.311 84.6999 199.135 84.8384C198.968 84.9854 198.773 85.1107 198.628 85.2815L198.203 85.8064C197.645 86.5207 197.297 87.3659 197.049 88.2204C196.598 89.9502 196.694 91.7194 196.994 93.4012C197.161 94.31 197.403 95.199 197.705 96.0665C197.17 95.9079 196.629 95.7825 196.082 95.7048C195.414 95.6343 194.744 95.5967 194.081 95.6332C193.685 95.6448 193.294 95.6891 192.904 95.746C189.148 73.056 200.123 58.4574 207.286 53.3775C213.692 48.8334 218.703 49.2962 223.053 54.8369L223.123 54.9259C223.066 54.9587 223.008 54.9878 222.952 55.0214C221.458 55.9183 220.205 57.1567 219.268 58.5895C218.798 59.3049 218.423 60.0844 218.164 60.9004C217.92 61.7158 217.801 62.602 217.986 63.4182C218.32 61.7967 219.255 60.5072 220.253 59.3292C221.276 58.1658 222.467 57.1626 223.763 56.3819C225.061 55.6099 226.484 55.0687 227.972 54.9984C229.462 54.9171 230.974 55.37 232.434 56.1675C231.416 54.8672 229.796 53.9143 228.009 53.7636C226.842 53.6508 225.671 53.845 224.585 54.2416C226.221 50.1726 229.782 47.0163 232.556 45.9747C233.67 45.5567 234.628 45.4921 235.182 45.7961C238.519 47.6274 239.466 51.6234 237.921 57.3515L237.444 59.1221L239.061 58.2555C242.216 56.5551 245.276 56.2474 247.897 57.3487C250.686 58.5216 252.831 61.2637 253.935 65.0703C255.188 69.3917 253.44 79.2556 251.711 86.9193L248.41 88.3637C245.15 89.8128 241.921 91.3309 238.715 92.8985C238.645 92.5037 238.627 92.1432 238.692 91.8159C239.403 88.1931 240.897 84.5663 240.911 84.5301L241.096 84.084L240.784 83.7157C240.703 83.6205 232.701 74.1027 232.687 68.2239L232.68 64.9652L231.192 67.8646C229.357 71.4388 226.548 74.4191 224.392 75.8654C224.223 75.3614 224.031 74.8619 223.789 74.3774C223.421 73.5845 222.97 72.807 222.381 72.11C221.802 71.4145 221.109 70.7561 220.256 70.3187C219.409 69.8792 218.437 69.6507 217.503 69.6974C215.615 69.7851 214.012 70.6753 212.68 71.715C211.331 72.759 210.192 74.0118 209.204 75.3523C210.415 74.2105 211.712 73.1701 213.103 72.3376C214.491 71.524 216.034 70.9278 217.497 70.9989C218.964 71.0738 220.169 71.9549 221.059 73.1551C221.952 74.3569 222.589 75.8136 223.182 77.2951C225.091 84.028 222.626 93.2706 217.567 98.3458L217.2 98.7133L217.391 99.1964C220.385 106.765 223.778 115.344 215.243 123.563L214.776 124.012L215.123 124.558C219.492 131.436 216.283 137.81 213.982 140.998L212.52 143.022L214.881 142.21C218.064 141.115 220.739 141.338 222.614 142.857C224.868 144.68 225.791 148.298 225.213 153.044L225.038 154.474L226.338 153.854C228.187 152.973 229.848 152.856 231.273 153.506C233.251 154.409 234.227 156.527 234.412 157.197L234.804 158.612L235.77 157.509C240.406 152.217 245.714 141.946 245.369 122.832C248.354 121.61 251.349 120.413 254.363 119.261C254.56 123.767 249.799 135.536 247.827 139.947ZM191.124 147.941C189.224 149.021 187.363 150.169 185.496 151.307C184.874 151.686 184.251 152.064 183.626 152.437C183.004 152.816 182.379 153.193 181.756 153.57C180.509 154.324 179.262 155.079 178.033 155.862C177.419 156.254 176.809 156.652 176.206 157.062L172.492 159.496L168.892 161.856C167.665 162.642 166.47 163.474 165.276 164.308L161.69 166.801C160.667 167.513 159.655 168.241 158.637 168.96C158.726 167.917 158.635 166.895 158.343 165.911C157.474 162.975 154.987 160.586 151.12 158.951C151.504 158.564 151.854 158.166 152.171 157.759L153.824 156.542L159.051 152.655C159.912 151.994 160.807 151.379 161.704 150.767L164.386 148.919L166.083 147.751L169.751 145.225C173.073 143.047 176.44 140.937 179.789 138.8C180.101 138.601 180.415 138.403 180.727 138.204C181.181 137.906 181.641 137.617 182.105 137.336C182.569 137.054 183.037 136.778 183.508 136.506L183.753 136.361L186.315 134.853L186.434 134.783L191.93 131.547L194.73 129.881C194.786 129.848 194.844 129.817 194.901 129.785C195.584 130.61 196.302 131.412 197.065 132.185C194.626 134.38 194.685 136.589 194.967 137.766C195.441 139.739 197.182 141.526 199.182 142.184C199.117 142.622 199.072 143.065 199.024 143.506C196.384 144.973 193.76 146.467 191.124 147.941ZM175.601 195.11C168.18 202.443 161.749 198.439 161.481 198.267L160.996 197.953L160.547 198.315C160.289 198.524 154.114 203.357 146.165 196.048C138.554 189.051 136.491 180.916 139.67 170.465C139.772 170.847 139.872 171.229 139.997 171.605C140.719 173.673 141.796 175.65 143.319 177.258C144.816 178.868 146.795 180.089 148.915 180.449C147.017 179.457 145.476 178.075 144.26 176.458C143.055 174.836 142.137 173.011 141.494 171.092C140.828 169.179 140.434 167.167 140.292 165.133C140.176 163.098 140.306 161.034 140.999 159.011C139.71 160.739 139.165 162.974 139.062 165.14C138.991 166.563 139.133 167.988 139.419 169.385L139.211 169.316C135.213 167.978 132.312 164.442 131.253 159.615C130.206 154.848 131.231 149.863 133.744 147.464C134.363 147.015 135.037 146.647 135.771 146.506C136.532 146.355 137.346 146.466 138.105 146.803C138.867 147.137 139.565 147.671 140.175 148.298C140.783 148.928 141.314 149.649 141.737 150.438C141.434 149.595 141.011 148.788 140.478 148.044C139.944 147.304 139.293 146.62 138.479 146.105C137.673 145.59 136.671 145.277 135.652 145.325C134.938 145.352 134.254 145.543 133.607 145.812C128.571 135.566 128.707 126.288 130.408 121.389C131.028 119.6 131.888 118.338 132.769 117.918C132.777 117.913 132.786 117.91 132.794 117.906C135.659 116.594 139.35 118.689 143.767 124.135L144.737 125.333C143.368 127.244 142.517 129.473 142.242 131.764C141.957 134.066 142.268 136.489 143.377 138.475C142.893 136.267 142.981 134.064 143.455 131.972C143.947 129.89 144.799 127.888 146.054 126.208C147.281 124.528 148.962 123.148 150.946 122.748C151.934 122.568 152.983 122.64 153.994 122.968C155.016 123.278 155.979 123.832 156.921 124.457C156.215 123.575 155.337 122.807 154.293 122.251C153.249 121.708 152.018 121.416 150.784 121.523C149.546 121.611 148.376 122.115 147.36 122.772C146.555 123.313 145.857 123.976 145.241 124.702L145.172 123.588C144.772 117.192 147.28 110.035 153.779 108.47C159.76 107.03 161.901 114.686 161.99 115.012L162.344 116.307L163.308 115.373C163.321 115.361 164.616 114.128 166.383 114.179C167.626 114.215 168.845 114.875 170.004 116.139C173.758 120.23 171.675 127.887 171.653 127.964L171.515 128.494L171.95 128.819C171.972 128.834 173.206 129.797 174.856 133.086C174.063 133.686 173.268 134.284 172.481 134.892C171.742 135.476 171.003 136.059 170.263 136.643C169.916 134.64 169.449 132.771 168.681 131.311C166.702 127.545 164.034 126.331 162.928 125.973C162.673 124.986 162.221 124.11 161.679 123.344C161.015 122.426 160.246 121.621 159.39 120.94C160.056 121.803 160.593 122.752 160.985 123.725C161.358 124.665 161.553 125.648 161.489 126.547L161.488 126.573C161.479 126.724 161.227 130.311 157.128 133.436L156.726 133.742L156.836 134.236C157.875 138.927 155.635 145.564 152.226 147.895L151.639 148.296L151.975 148.922C153.956 152.623 151.81 156.36 149.139 158.624L148.093 159.511L149.385 159.973C153.444 161.426 156.017 163.634 156.823 166.359C157.548 168.803 156.788 171.59 154.628 174.421L154.129 175.077L154.804 175.55C157.752 177.617 161.033 180.745 159.914 183.901L159.566 184.881L160.604 184.955C163.646 185.171 165.084 186.427 165.093 186.436L166.766 187.982L166.413 185.731C165.876 182.316 166.912 178.539 169.255 175.37C170.993 173.018 172.862 171.809 173.947 171.654L174.523 171.572L174.616 170.998C175.141 167.773 175.208 163.643 174.925 159.719L177.023 158.33C178.059 157.622 179.117 156.947 180.181 156.283C180.2 168.101 177.118 179.905 177.04 180.201C176.56 181.764 175.942 183.312 175.219 184.818C174.487 186.348 173.67 187.849 172.749 189.291C173.882 188.006 174.929 186.639 175.905 185.215C176.625 184.165 177.297 183.075 177.907 181.939C179.219 184.097 181.375 189.403 175.601 195.11ZM128.087 191.896C127.084 192.697 126.086 193.504 125.089 194.312L125.089 194.317C122.592 196.348 120.116 198.405 117.66 200.486L117.658 200.478C117.252 200.822 116.847 201.168 116.442 201.513C115.109 202.65 113.774 203.787 112.455 204.941C111.669 202.876 110.431 200.545 108.499 197.933C109.199 196.676 109.72 194.74 109.711 192.377C111.031 191.019 112.348 189.658 113.686 188.317C113.691 188.311 113.698 188.305 113.703 188.299C113.855 188.147 114.009 187.999 114.161 187.848L114.16 187.847C118.859 183.15 123.665 178.561 128.549 174.055C130.564 172.197 132.59 170.352 134.631 168.524C135.104 168.92 135.603 169.28 136.127 169.601L135.473 170.179L133.09 172.419C131.516 173.925 129.897 175.386 128.36 176.93C128.357 176.933 128.355 176.936 128.352 176.938C123.545 181.663 118.957 186.589 114.359 191.503C113.012 192.943 111.665 194.383 110.31 195.815C111.687 194.474 113.049 193.119 114.406 191.759C114.408 191.757 114.41 191.755 114.412 191.753C114.628 191.537 114.845 191.321 115.061 191.104L115.06 191.101C118.425 187.722 121.764 184.318 125.186 181.003L125.186 181.009C125.317 180.883 125.448 180.756 125.58 180.629C126.674 179.572 127.775 178.523 128.891 177.489C128.892 177.488 128.893 177.488 128.893 177.487C129.062 177.325 129.236 177.17 129.405 177.011C129.458 176.962 129.512 176.912 129.564 176.863C130.926 175.586 132.317 174.339 133.689 173.073L136.1 170.881L137.011 170.102C137.329 170.264 137.653 170.418 137.987 170.552C136.499 175.702 136.28 180.391 137.317 184.68C136.07 185.638 134.818 186.59 133.577 187.555C133.171 187.871 132.771 188.196 132.366 188.513C132.366 188.511 132.365 188.51 132.364 188.509C130.934 189.63 129.507 190.76 128.087 191.896ZM130.428 210.229C131.128 210.766 131.732 211.23 131.956 211.519C132.581 212.326 133.35 214.352 132.751 216.355C132.223 218.125 130.771 219.482 128.448 220.409C128.267 220.096 128.075 219.793 127.851 219.51C127.479 219.002 127.025 218.56 126.553 218.167C125.594 217.394 124.473 216.853 123.314 216.657C124.396 217.106 125.309 217.856 125.993 218.726C126.328 219.168 126.626 219.629 126.839 220.129C127.051 220.573 127.188 221.045 127.307 221.514C127.373 222.317 127.038 224.885 125.333 226.543C124.019 227.82 122.149 228.314 119.775 228.01C119.035 227.841 118.278 227.428 117.639 226.838C117.298 226.529 116.981 226.179 116.705 225.795C116.446 225.407 116.158 225 116.099 224.517C116.025 225.012 116.198 225.508 116.355 225.978C116.528 226.451 116.755 226.907 117.029 227.342C117.44 228 117.978 228.615 118.662 229.103C117.48 231.741 115.272 232.532 111.929 231.519C102.563 228.678 94.9171 208.626 97.8205 194.523C97.9353 193.864 98.1549 193.202 98.479 192.576C98.6382 192.263 98.8179 191.955 99.0191 191.661C99.215 191.371 99.4476 191.071 99.66 190.836L100.175 190.264L99.5558 189.914C98.7698 189.469 97.9762 188.819 97.2974 188.126C96.6105 187.423 96.0021 186.635 95.5012 185.776C94.4867 184.064 93.9234 182.075 93.8074 180.043C93.7304 182.074 94.0993 184.157 94.987 186.046C95.4245 186.991 95.9849 187.884 96.646 188.704C97.171 189.344 97.7269 189.932 98.3847 190.469C98.2557 190.609 98.1317 190.75 98.0084 190.899C97.7486 191.213 97.5097 191.546 97.2896 191.894C97.0103 192.331 96.7852 192.809 96.5888 193.302C91.9079 191.133 89.5374 184.877 89.2684 179.402C89.1128 176.231 89.8725 173.805 91.3013 172.912C91.3862 172.86 91.4726 172.812 91.5615 172.77C93.0291 172.07 94.9682 172.811 96.3745 173.586L97.8607 174.404L97.5332 172.739C96.0196 165.045 97.3755 160.689 98.1965 160.167C98.9871 159.663 100.076 158.973 102.372 161.981L103.129 162.972C103.044 163.049 102.957 163.115 102.873 163.197C102.378 163.688 101.951 164.27 101.637 164.9C101.342 165.537 101.113 166.194 101.009 166.862C100.794 168.194 100.872 169.511 101.201 170.773C101.541 169.514 101.819 168.297 102.218 167.179C102.632 166.062 103.199 165.11 103.993 164.312C104.378 163.919 104.862 163.516 105.296 163.187C105.701 162.883 106.17 162.709 106.69 162.633C107.74 162.525 108.956 162.873 110.022 163.582C109.403 162.429 108.162 161.561 106.684 161.427C105.942 161.361 105.157 161.564 104.504 161.946C104.178 162.135 103.886 162.337 103.608 162.556L103.779 161.649C105.196 154.175 108.379 151.438 110.051 151.473C110.719 151.485 111.654 152.059 112.494 152.968C113.602 154.169 114.725 156.214 114.679 158.427C114.028 159.135 113.511 159.952 113.188 160.827C112.812 161.828 112.664 162.874 112.662 163.893C112.678 165.938 113.201 167.893 113.979 169.697C113.448 167.809 113.21 165.828 113.453 163.943C113.581 163.006 113.845 162.101 114.273 161.309C114.69 160.531 115.266 159.877 115.943 159.363C116.821 158.742 118.185 159.243 119.27 160.584C122.234 164.245 122.928 170.669 122.83 177.492C120.908 179.323 118.996 181.164 117.107 183.028C116.978 182.681 116.848 182.34 116.736 182.007C115.921 179.598 116.362 176.987 116.366 176.961L116.474 176.34L115.895 176.095C115.855 176.077 111.802 174.328 110.704 171.34L109.692 168.592L109.182 171.475C109.086 172.015 108.423 172.71 108.03 173.02L107.641 173.326L107.743 173.809C107.753 173.859 108.772 178.916 105.63 182.595L105.267 183.02L105.546 183.504C109.213 189.875 108.32 195.483 106.896 197.522L106.566 197.995L106.916 198.455C112.046 205.203 112.32 209.938 112.079 212.914L112.034 213.473L112.547 213.701C114.539 214.584 116.493 217.349 116.512 217.377L116.654 217.579C117.272 218.444 117.771 219.413 118.049 220.479C118.367 221.642 118.431 222.893 118.337 224.146C118.689 222.944 118.904 221.668 118.832 220.359C118.78 219.172 118.468 217.986 117.984 216.864C118.151 216.189 118.875 213.84 121.166 212.528C121.63 212.248 122.229 212.085 122.857 212.035C123.507 211.984 124.19 212.04 124.86 212.185C125.53 212.333 126.191 212.566 126.809 212.892C127.424 213.221 128.006 213.642 128.454 214.209C128.118 213.57 127.603 213.021 127.026 212.562C126.446 212.102 125.796 211.726 125.101 211.431C124.406 211.141 123.665 210.933 122.882 210.848C122.481 210.807 122.065 210.8 121.644 210.843C121.727 208.164 121.037 204.086 120.09 200.202C120.755 199.648 121.423 199.099 122.092 198.55C123.333 204.781 127.799 208.21 130.428 210.229ZM118.717 201.346C119.612 205.184 120.237 209.119 120.031 211.363C118.268 212.496 117.33 214.087 116.847 215.255C116.085 214.37 114.942 213.209 113.69 212.507C113.78 210.867 113.685 208.789 112.911 206.264C114.203 205.154 115.499 204.049 116.799 202.949C117.436 202.412 118.078 201.881 118.717 201.346ZM107.181 183.191C109.898 179.644 109.571 175.363 109.368 173.95C109.539 173.788 109.746 173.576 109.949 173.324C111.336 175.421 113.663 176.763 114.723 177.295C114.62 178.311 114.53 180.441 115.232 182.516C115.365 182.911 115.517 183.312 115.672 183.727C115.737 183.899 115.802 184.074 115.867 184.249C113.755 186.352 111.668 188.478 109.608 190.629C109.359 188.387 108.637 185.857 107.181 183.191ZM193.912 128.544L191.137 130.181C187.169 132.492 183.233 134.865 179.337 137.301L179.342 137.318C175.084 139.981 170.878 142.726 166.734 145.565L166.73 145.556C162.334 148.567 158.009 151.68 153.779 154.92C154.19 153.818 154.374 152.693 154.321 151.58C156.061 150.137 157.801 148.695 159.552 147.267C160.967 146.084 162.393 144.917 163.824 143.757C167.003 141.179 170.211 138.64 173.41 136.09C174.579 135.178 175.759 134.279 176.941 133.383C178.124 132.486 179.308 131.593 180.486 130.693C182.832 128.876 185.244 127.15 187.65 125.416C188.616 124.716 189.586 124.023 190.557 123.332C191.522 125.119 192.64 126.871 193.912 128.544ZM173.412 160.725C173.603 163.97 173.55 167.351 173.136 170.222C171.501 170.712 169.582 172.268 167.983 174.431C165.752 177.451 164.595 180.99 164.7 184.359C163.968 184.016 162.958 183.664 161.654 183.477C162.006 181.313 161.144 178.277 156.369 174.727C157.189 173.546 157.787 172.365 158.171 171.2C159.644 170.163 161.113 169.12 162.596 168.098C164.99 166.451 167.33 164.721 169.763 163.137L171.818 161.778L173.412 160.725ZM163.004 142.411C163.002 142.413 163.001 142.414 162.999 142.415C161.507 143.615 160.019 144.821 158.548 146.044C157.036 147.292 155.534 148.55 154.029 149.807C153.931 149.465 153.817 149.126 153.671 148.791C157.168 145.923 159.362 139.402 158.481 134.389C161.575 131.875 162.587 129.102 162.915 127.654C163.947 128.097 165.805 129.239 167.282 132.05C168.058 133.526 168.505 135.573 168.844 137.766C166.891 139.307 164.943 140.853 163.004 142.411ZM219.052 99.0869C224.177 93.6472 226.612 84.5568 224.861 77.4461C226.807 76.2519 229.374 73.8263 231.423 70.6304C232.763 76.1516 237.933 82.7342 239.27 84.3698C238.839 85.4748 237.739 88.451 237.139 91.5119C237.006 92.1867 237.065 92.8672 237.248 93.6096C231.537 96.4318 225.909 99.4254 220.372 102.577C219.951 101.38 219.497 100.214 219.052 99.0869ZM242.936 123.82C242.936 123.82 242.936 123.822 242.936 123.823C243.223 123.703 243.513 123.59 243.8 123.47C244.004 140.558 239.587 150.199 235.404 155.475C234.777 154.29 233.651 152.848 231.932 152.063C230.407 151.367 228.723 151.319 226.911 151.916C227.231 147.244 226.078 143.619 223.611 141.624C221.759 140.125 219.255 139.626 216.421 140.16C217.448 138.418 218.15 136.653 218.537 134.892C219.9 134.215 221.266 133.542 222.634 132.874C229.326 129.692 236.093 126.668 242.936 123.82Z" fill="white"/>
<path d="M277.599 105.388C273.977 106.401 270.383 107.509 266.795 108.635C263.208 109.767 259.642 110.959 256.123 112.31C256.976 111.91 257.83 111.51 258.693 111.128L261.301 110.032C263.059 109.352 264.824 108.687 266.602 108.06C270.16 106.807 273.767 105.708 277.38 104.629C278.779 104.24 280.181 103.858 281.584 103.484C281.281 103.469 280.945 103.419 280.763 103.177C280.552 102.893 280.669 102.465 280.925 102.22C281.181 101.976 281.535 101.871 281.876 101.773C281.906 101.764 281.947 101.752 281.98 101.743C280.114 102.202 278.248 102.663 276.364 103.072C278.383 102.3 280.433 101.631 282.494 100.993C283.819 100.579 285.155 100.203 286.494 99.8395C285.902 99.9278 285.268 100.008 284.554 100.074C283.933 100.132 281.01 99.9984 280.477 99.7427C279.901 99.4667 279.365 98.8414 279.347 98.2032C279.32 97.214 280.1 96.4732 280.961 95.9024C277.372 97.1576 273.803 98.4565 270.242 99.773C264.866 101.791 259.506 103.852 254.177 105.99C248.837 108.102 243.528 110.294 238.227 112.509C232.937 114.749 227.647 116.989 222.401 119.367C227.366 116.446 232.508 113.821 237.728 111.384C242.943 108.932 248.245 106.671 253.591 104.521C258.949 102.401 264.354 100.395 269.835 98.6072C272.153 97.8443 274.489 97.132 276.836 96.4597C276.741 96.483 276.649 96.5035 276.551 96.5295C275.425 96.8306 273.877 97.2221 272.994 96.4605C272.3 95.8612 271.946 95.1007 272.251 94.2359C272.555 93.3711 273.217 92.6805 273.918 92.0889C274.615 91.4999 275.677 90.8052 276.753 90.2015C271.79 92.3092 266.822 94.406 261.893 96.5869L257.246 98.6767L249.991 101.939L244.041 104.613L238.99 107.047L238.164 107.445C234.25 109.339 230.332 111.223 226.402 113.083L221.856 115.402C221.214 118.352 219.688 121.332 216.796 124.258C218.491 127.157 219.147 130.248 218.79 133.376L222.115 131.776C229.119 128.566 236.201 125.506 243.36 122.642L243.36 122.649C248.749 120.496 254.184 118.46 259.663 116.557C259.666 116.552 259.669 116.547 259.673 116.541C268.094 113.619 276.624 111.026 285.266 108.845C286.906 108.417 287.785 108.213 287.785 108.213C287.11 108.361 286.196 108.303 285.506 108.282C284.931 108.264 284.405 108.206 283.839 107.907C283.377 107.662 283.065 107.159 283.052 106.637C283.028 105.733 283.8 105.026 284.539 104.507C285.788 103.631 287.147 102.923 288.563 102.36C288.533 102.368 288.503 102.375 288.473 102.383C284.839 103.348 281.206 104.322 277.599 105.388Z" fill="#FFF9B5"/>
<path d="M253.591 104.52C248.245 106.669 242.944 108.93 237.728 111.383C232.508 113.819 227.366 116.444 222.401 119.366C227.647 116.988 232.938 114.747 238.228 112.507C243.528 110.292 248.838 108.102 254.177 105.989C259.506 103.851 264.866 101.789 270.242 99.7713C273.804 98.4546 277.372 97.1559 280.961 95.9007C282.8 95.2574 284.643 94.6225 286.496 94.0091C283.248 94.7096 280.03 95.5418 276.834 96.4578C274.487 97.13 272.152 97.8423 269.833 98.6052C264.354 100.393 258.949 102.4 253.591 104.52Z" fill="white"/>
<path d="M195.722 123.732C196.395 124.971 197.127 126.21 198.183 127.142C199.241 128.074 200.686 128.666 202.068 128.39C203.901 128.023 205.134 126.277 205.8 124.531C206.467 122.784 206.775 120.886 207.732 119.279C208.794 117.495 210.547 116.25 211.959 114.728C213.371 113.205 214.494 111.078 213.851 109.104C213.177 107.036 210.91 106.018 208.88 105.24C204.798 103.674 193.576 96.8998 190.537 102.861C187.487 108.84 192.944 118.62 195.722 123.732Z" fill="white"/>
<path d="M207.96 136.956C209.239 136.067 210.372 134.448 209.708 133.039C208.348 130.155 199.794 132.443 198.323 134.618C197.114 136.406 198.71 137.933 200.453 138.449C202.897 139.172 205.923 138.37 207.96 136.956Z" fill="white"/>
<path d="M202.268 96.4104C202.855 97.8053 203.749 99.4239 205.261 99.4756C206.336 99.5125 207.235 98.7062 207.983 97.9328C210.685 95.1401 213.107 92.0773 215.203 88.8061C216.877 86.1915 218.393 83.2087 218.014 80.1275C217.755 78.0223 216.051 75.7918 213.959 76.145C211.865 76.499 211.04 78.9658 210.053 80.845C208.164 84.4383 205.34 84.8039 202.322 86.7652C199.064 88.883 201.072 93.5682 202.268 96.4104Z" fill="white"/>
<path d="M194.462 88.1094C193.78 75.5951 199.339 62.892 208.995 54.9021C210.425 53.7192 212.022 52.5995 213.862 52.3545C215.702 52.1105 217.816 53.019 218.367 54.7913C215.27 55.6576 212.879 58.1855 211.286 60.979C209.692 63.7728 208.75 66.8817 207.504 69.8467C204.634 76.6734 200.09 82.7889 194.382 87.5061C194.355 86.5895 194.328 85.673 194.3 84.7564L194.462 88.1094Z" fill="white"/>
<path d="M224.065 64.9757C225.021 64.49 225.754 63.6647 226.461 62.8589C227.564 61.6027 229.077 59.6188 227.769 57.959C226.678 56.5744 223.914 56.7409 222.588 57.6297C219.715 59.5533 219.185 67.4556 224.065 64.9757Z" fill="white"/>
<path d="M232.377 47.8258C231.849 48.423 230.992 48.5668 230.257 48.8734C229.521 49.1803 228.784 49.9026 229.022 50.6635C229.169 51.1368 229.664 51.4334 230.157 51.497C230.649 51.5608 231.143 51.4354 231.624 51.3116C232.2 51.1637 232.789 51.0089 233.281 50.6757C233.773 50.3414 234.159 49.7865 234.124 49.1929C234.094 48.6525 233.688 48.1529 233.165 48.0132C232.642 47.8728 232.041 48.1021 231.744 48.5553L232.377 47.8258Z" fill="white"/>
<path d="M215.024 162.753C216.132 163.145 217.566 163.167 218.272 162.227C218.827 161.488 218.707 160.465 218.624 159.544C218.355 156.547 218.77 153.49 219.828 150.673C220.199 149.687 220.649 148.719 220.822 147.68C220.995 146.641 220.846 145.485 220.14 144.702C217.851 142.162 216.906 145.763 216.332 147.248C215.428 149.586 213.764 149.857 212.12 151.391C208.423 154.842 210.58 161.181 215.024 162.753Z" fill="white"/>
<path d="M225.383 157.267C224.047 158.153 223.511 160.034 224.103 161.523C224.695 163.013 226.309 164.003 227.911 163.94C229.512 163.876 231.011 162.813 231.68 161.357C232.309 159.986 232.204 158.28 231.329 157.051C230.453 155.823 228.811 155.165 227.35 155.539C225.889 155.913 224.745 157.35 224.798 158.858L225.383 157.267Z" fill="white"/>
<path d="M242.551 149.892C242.197 150.738 241.913 151.879 242.642 152.436C243.409 153.023 244.496 152.343 245.125 151.611C246.059 150.525 246.778 149.256 247.229 147.895C247.644 146.647 247.536 143.53 245.319 144.26C243.931 144.718 243.048 148.701 242.551 149.892Z" fill="white"/>
<path d="M237.863 71.8527C240.436 70.3933 243.896 61.8256 238.786 61.4367C232.676 60.9726 236.705 72.5097 237.863 71.8527Z" fill="white"/>
<path d="M133.638 140.135C133.886 140.702 134.288 141.348 134.907 141.33C135.534 141.312 135.894 140.625 136.122 140.039C137.062 137.611 138.002 135.182 138.942 132.754C139.593 131.073 140.253 129.333 140.18 127.533C140.01 123.401 133.583 118.159 131.949 124.099C130.546 129.192 131.562 135.383 133.638 140.135Z" fill="white"/>
<path d="M154.52 117.383C158.472 114.778 157.667 109.214 152.244 110.682C148.833 111.605 147.271 117.631 147.68 120.659C150.073 120.116 152.476 118.731 154.52 117.383Z" fill="white"/>
<path d="M147.342 135.804C147.759 135.347 147.946 134.733 148.176 134.158C149.013 132.071 150.596 130.291 152.571 129.217C153.226 128.861 153.931 128.574 154.489 128.079C156.844 125.993 153.81 124.756 151.948 124.937C150.302 125.097 148.45 125.643 147.329 126.919C146.239 128.16 145.827 130.095 145.507 131.664C145.307 132.647 144.938 138.437 147.342 135.804Z" fill="white"/>
<path d="M136.953 157.72C137.433 156.468 138.858 155.818 140.195 155.728C141.532 155.637 142.858 155.974 144.195 156.071C145.532 156.168 147 155.971 147.948 155.024C148.897 154.077 148.941 152.207 147.767 151.561C145.115 150.101 143.228 154.863 140.338 153.796C138.101 152.97 137.586 150.228 134.896 152.191C132.804 153.719 132.668 156.516 133.221 158.793C133.51 159.979 133.954 162.323 135.605 161.763C137.115 161.251 136.526 158.833 136.953 157.72Z" fill="white"/>
<path d="M146.71 141.457C146.487 142.539 146.27 143.654 146.46 144.742C146.65 145.831 147.34 146.904 148.396 147.226C149.584 147.588 150.948 146.83 151.421 145.682C151.894 144.534 151.543 143.142 150.704 142.227C150.104 141.571 149.209 141.122 148.332 141.271C147.456 141.42 146.704 142.305 146.895 143.174L146.71 141.457Z" fill="white"/>
<path d="M164.888 116.544C166.369 116.538 167.525 118.346 166.9 119.689C166.275 121.032 164.148 121.309 163.199 120.17C162.25 119.032 162.906 116.99 164.34 116.616L164.888 116.544Z" fill="white"/>
<path d="M145.354 174.184C145.813 174.933 146.365 175.679 147.165 176.041C147.965 176.404 149.068 176.232 149.489 175.461C150.149 174.257 148.798 172.922 148.664 171.556C148.459 169.465 151.124 167.861 150.811 165.784C150.604 164.41 149.203 163.6 147.954 162.989C139.418 158.81 143.16 170.616 145.354 174.184Z" fill="white"/>
<path d="M169.563 178.302C167.876 180.296 167.553 183.337 168.785 185.64C171.438 183.745 172.575 179.986 171.418 176.939C170.358 177.205 169.459 178.038 169.114 179.074L169.563 178.302Z" fill="white"/>
<path d="M153.874 179.856C154.09 180.798 154.323 181.776 154.934 182.524C155.546 183.272 156.655 183.709 157.506 183.253C158.32 182.817 158.592 181.697 158.265 180.834C157.937 179.972 157.143 179.358 156.291 179.004C155.709 178.763 155.027 178.629 154.464 178.909C153.901 179.19 153.608 180.024 154.046 180.476L153.874 179.856Z" fill="white"/>
<path d="M105.523 222.095C106.061 223.427 106.858 224.936 108.281 225.132C109.914 225.356 111.198 223.611 111.398 221.975C111.644 219.963 110.888 217.977 110.123 216.099C109.021 213.397 107.868 210.715 106.667 208.055C105.657 205.818 104.494 203.283 102.579 201.663C99.7488 199.27 99.5036 201.842 100.05 204.349C101.369 210.405 103.201 216.349 105.523 222.095Z" fill="white"/>
<path d="M100.087 193.337C99.6063 193.973 99.1152 194.628 98.8917 195.393C98.6673 196.159 98.765 197.071 99.3403 197.624C100.249 198.498 101.743 198.078 102.892 197.558C104.064 197.027 105.374 196.211 105.433 194.926C105.493 193.621 104.099 192.627 102.792 192.616C101.485 192.606 100.284 193.286 99.1556 193.945L100.087 193.337Z" fill="white"/>
<path d="M90.9525 183.851C91.2079 184.281 91.6901 184.611 92.1849 184.544C92.8031 184.461 93.1986 183.804 93.257 183.182C93.3153 182.561 93.1328 181.945 93.066 181.325C92.8922 179.715 97.0043 173.682 93.1788 174.721C90.2148 175.525 89.7504 181.826 90.9525 183.851Z" fill="white"/>
<path d="M98.6461 184.132C99.9113 184.124 101.044 183.382 102.058 182.628C103.152 181.814 104.225 180.933 104.985 179.802C105.745 178.67 106.163 177.246 105.832 175.924C105.501 174.602 104.298 173.467 102.935 173.479C101.615 173.492 100.533 174.478 99.5907 175.403C98.302 176.669 96.2683 177.969 95.6632 179.74C94.9539 181.816 96.3243 184.146 98.6461 184.132Z" fill="white"/>
<path d="M105.639 164.617C104.58 165.206 103.518 165.888 102.868 166.911C102.218 167.934 102.091 169.381 102.873 170.307C103.919 171.545 106 171.237 107.256 170.212C108.049 169.564 108.668 168.647 108.772 167.628C108.876 166.608 108.383 165.503 107.462 165.054C106.541 164.605 105.249 165 104.879 165.956L105.639 164.617Z" fill="white"/>
<path d="M98.8208 161.285C98.0802 163.79 98.0857 166.511 98.8379 169.012C100.479 166.778 100.817 163.653 99.6921 161.119C99.1223 161.151 98.6242 161.674 98.6198 162.245L98.8208 161.285Z" fill="white"/>
<path d="M109.471 153.78C108.267 154.138 107.158 154.915 106.56 156.02C105.962 157.126 105.943 158.567 106.656 159.602C107.608 160.988 109.763 161.295 111.129 160.313C112.496 159.332 112.922 157.297 112.162 155.796C111.573 154.63 110.261 153.798 108.97 153.994L109.471 153.78Z" fill="white"/>
<path d="M116.537 160.765C114.756 161.553 113.734 163.747 114.274 165.618C114.658 166.947 116.084 168.112 117.373 167.612C118.242 167.275 118.726 166.298 118.761 165.367C118.798 164.436 118.474 163.533 118.157 162.656C117.977 162.161 117.783 161.644 117.388 161.295C116.994 160.945 116.335 160.835 115.954 161.2L116.537 160.765Z" fill="white"/>
<path d="M120.748 214.444C119.601 216.135 119.564 218.507 120.655 220.233C121.181 218.696 121.705 217.158 122.23 215.621C122.418 215.071 122.583 214.397 122.194 213.965C121.941 213.685 121.484 213.618 121.162 213.814C120.839 214.009 120.687 214.446 120.818 214.8L120.748 214.444Z" fill="white"/>
<path d="M67.2827 160.018C66.5406 158.846 65.8218 157.685 65.1296 156.534C64.437 155.386 63.8064 154.308 63.2418 153.311C62.6772 152.314 62.2768 151.526 62.0464 150.961C61.8359 150.515 61.7579 150.109 61.8132 149.745C61.8685 149.38 62.0959 148.915 62.499 148.353C62.8864 147.782 63.2369 147.321 63.5466 146.969C63.8565 146.616 64.2381 146.204 64.6926 145.733C64.9435 145.471 65.1556 145.29 65.3288 145.188C65.5014 145.086 65.6688 145.037 65.8298 145.039C65.9911 145.042 66.1599 145.091 66.3361 145.184C66.5117 145.279 66.7151 145.397 66.9482 145.54C67.2119 145.702 67.6446 146.009 68.246 146.46C68.8479 146.91 69.5518 147.438 70.3574 148.038C71.1633 148.638 72.0199 149.274 72.9268 149.946C73.8334 150.618 74.7181 151.268 75.5822 151.897C75.0689 151.041 74.5292 150.117 73.9646 149.119C73.3992 148.122 72.8296 147.106 72.2544 146.07C71.6803 145.035 71.118 144.004 70.5698 142.978C70.0225 141.953 69.5051 140.98 69.0205 140.06C68.5357 139.143 68.101 138.305 67.7176 137.554C67.3343 136.804 67.0269 136.176 66.7946 135.676C66.4692 135.027 66.3619 134.521 66.4736 134.163C66.5864 133.805 66.9258 133.354 67.4977 132.818C67.9363 132.452 68.394 132.107 68.8716 131.786C69.3492 131.466 69.849 131.184 70.3705 130.943C70.9968 130.718 71.5096 130.765 71.904 131.076C72.2984 131.386 72.6353 131.816 72.9137 132.358C73.3616 133.396 73.8839 134.549 74.4771 135.809C75.0713 137.069 75.6951 138.351 76.3493 139.651C77.003 140.952 77.6698 142.253 78.3485 143.553C79.0275 144.853 79.6876 146.084 80.3295 147.252C80.9719 148.419 81.5711 149.5 82.1291 150.498C82.6873 151.498 83.1753 152.351 83.5938 153.069C83.7671 153.431 83.7882 153.782 83.6569 154.126C83.5256 154.469 83.2246 154.893 82.7577 155.404C82.4914 155.689 82.2537 155.93 82.0425 156.125C81.8314 156.32 81.633 156.505 81.4497 156.68C81.2653 156.855 81.077 157.028 80.8864 157.199C80.6949 157.37 80.4931 157.567 80.2815 157.788C79.7957 158.195 79.3516 158.432 78.9446 158.493C78.5384 158.555 78.1535 158.532 77.7888 158.422C77.436 158.293 77.0069 158.14 76.5007 157.963C75.9954 157.785 75.4511 157.581 74.8699 157.35C74.2879 157.119 73.6983 156.878 73.101 156.626C72.5032 156.375 71.9413 156.1 71.4135 155.8C71.8245 156.626 72.2536 157.468 72.6996 158.324C73.1464 159.18 73.5835 159.992 74.014 160.762C74.444 161.532 74.8423 162.234 75.209 162.872C75.5765 163.51 75.8809 164.024 76.1246 164.419C76.2837 164.794 76.311 165.116 76.2102 165.387C76.1085 165.659 75.9063 165.992 75.6043 166.388C75.1827 166.914 74.7617 167.412 74.3387 167.882C73.9154 168.351 73.5055 168.799 73.1081 169.225C72.7329 169.614 72.3932 169.862 72.0883 169.966C71.7834 170.07 71.4172 170.057 70.9878 169.925C70.3211 169.799 69.5756 169.621 68.751 169.39C67.9269 169.158 67.0582 168.89 66.1462 168.586C65.1926 168.261 64.2025 167.909 63.1758 167.531C62.1504 167.151 61.134 166.767 60.1275 166.375C59.121 165.983 58.1449 165.583 57.1999 165.169C56.2549 164.756 55.3817 164.365 54.5793 163.992C54.1374 163.76 53.9007 163.491 53.8671 163.183C53.8343 162.874 54.004 162.379 54.38 161.705C54.8149 160.924 55.229 160.228 55.619 159.616C56.0089 159.005 56.4316 158.465 56.8878 157.998C57.1557 157.731 57.4273 157.547 57.6997 157.445C57.9731 157.344 58.2366 157.299 58.4904 157.309C58.7444 157.32 58.9895 157.374 59.225 157.47C59.4608 157.566 59.6696 157.674 59.8497 157.793C60.2199 158.012 60.7584 158.337 61.4646 158.768C62.1707 159.199 62.9598 159.673 63.8319 160.187C64.7044 160.702 65.6176 161.225 66.5722 161.753C67.5263 162.283 68.4405 162.772 69.3151 163.223C68.7018 162.257 68.0251 161.191 67.2827 160.018Z" fill="white"/>
<path d="M83.2425 114.977C84.0648 115.138 84.9066 115.467 85.7662 115.958C87.16 116.817 88.5466 117.935 89.9209 119.295C91.2958 120.654 92.5402 122.159 93.6503 123.786C94.7607 125.415 95.6681 127.099 96.3728 128.829C97.0775 130.558 97.454 132.248 97.5074 133.903C97.4725 134.968 97.2377 135.915 96.8059 136.758C96.375 137.601 95.719 138.438 94.8451 139.285C94.2624 139.851 93.6332 140.407 92.9581 140.96C92.283 141.513 91.5888 141.962 90.8757 142.311C90.2911 142.596 89.6499 142.829 88.9541 143.016C88.2583 143.202 87.5883 143.266 86.9429 143.206C85.8906 143.096 84.8234 142.827 83.7364 142.389C82.6508 141.953 81.6007 141.372 80.5819 140.637C79.5632 139.903 78.6055 139.032 77.7025 138.015C76.8003 136.998 76.0025 135.866 75.3071 134.61C74.6125 133.353 74.0414 131.995 73.5958 130.528C73.1504 129.062 72.8707 127.516 72.7623 125.892C72.7437 124.841 72.9145 123.721 73.2806 122.54C73.6469 121.36 74.1646 120.358 74.8351 119.547C75.7032 118.495 76.6316 117.578 77.6173 116.798C78.6036 116.021 79.554 115.488 80.462 115.198C81.492 114.887 82.4205 114.817 83.2425 114.977ZM79.3638 123.743C79.4395 124.573 79.6607 125.512 80.0265 126.554C80.3923 127.595 80.8582 128.654 81.4228 129.728C81.9875 130.802 82.5747 131.764 83.1863 132.617C83.7811 133.459 84.4561 134.243 85.2084 134.972C85.9625 135.701 86.7088 136.312 87.4508 136.811C88.1925 137.31 88.8975 137.646 89.5655 137.823C90.2352 138 90.7803 137.94 91.2028 137.638C91.5984 137.371 91.8187 136.947 91.8624 136.354C91.9058 135.762 91.8076 135.059 91.5678 134.24C91.3272 133.42 90.9414 132.514 90.4061 131.518C89.8708 130.522 89.2262 129.507 88.472 128.476C87.8589 127.615 87.1308 126.728 86.2885 125.819C85.4462 124.909 84.6129 124.119 83.7904 123.455C82.9503 122.778 82.1692 122.288 81.4492 121.992C80.7294 121.697 80.1898 121.705 79.8308 122.016C79.4432 122.334 79.2883 122.913 79.3638 123.743Z" fill="white"/>
<path d="M92.3211 114.59C92.6823 113.954 93.0896 113.289 93.5429 112.596C93.9965 111.904 94.4702 111.211 94.9625 110.519C95.4552 109.829 95.9552 109.18 96.4602 108.575C96.6928 108.296 96.9644 108.115 97.274 108.031C97.5836 107.947 97.9528 107.937 98.3806 108.001C98.8466 108.124 99.2603 108.259 99.6225 108.403C99.9841 108.547 100.337 108.679 100.681 108.796C101.085 108.973 101.299 109.149 101.324 109.323C101.348 109.499 101.237 109.736 100.992 110.036C100.169 111.111 99.3637 112.227 98.5746 113.381C97.7855 114.534 97.1349 115.672 96.6195 116.782C96.4827 117.095 96.2835 117.319 96.0228 117.457C95.7621 117.596 95.3916 117.668 94.913 117.675C94.4241 117.694 93.9782 117.686 93.5727 117.648C93.1672 117.61 92.7606 117.558 92.3531 117.489C91.3666 117.369 91.0576 116.966 91.425 116.264C91.6623 115.784 91.9606 115.225 92.3211 114.59Z" fill="white"/>
<path d="M120.139 84.9172C120.585 84.3321 121.084 83.7277 121.637 83.1062C122.189 82.485 122.763 81.8688 123.357 81.2587C123.951 80.6494 124.549 80.0869 125.15 79.5727C125.426 79.3362 125.737 79.2169 126.082 79.2145C126.428 79.212 126.831 79.3066 127.293 79.4991C127.791 79.7667 128.231 80.0318 128.615 80.2922C128.998 80.5536 129.372 80.797 129.737 81.0231C130.163 81.3305 130.382 81.5838 130.394 81.7814C130.407 81.9798 130.268 82.2071 129.978 82.4653C129 83.4066 128.036 84.3936 127.087 85.4255C126.137 86.4577 125.34 87.5094 124.692 88.5713C124.519 88.8719 124.285 89.0589 123.989 89.1333C123.693 89.2085 123.281 89.1779 122.755 89.0453C122.217 88.9226 121.727 88.782 121.283 88.6214C120.841 88.4605 120.397 88.2823 119.954 88.0874C118.877 87.6638 118.566 87.1329 119.025 86.4783C119.321 86.0228 119.693 85.5028 120.139 84.9172Z" fill="white"/>
<path d="M110.119 82.5637C111.021 82.9891 111.929 83.6017 112.842 84.3957C114.319 85.7509 115.767 87.3845 117.183 89.2779C118.599 91.1711 119.861 93.1829 120.971 95.2916C122.079 97.4004 122.964 99.5125 123.626 101.615C124.289 103.718 124.598 105.682 124.557 107.513C124.455 108.67 124.14 109.638 123.615 110.433C123.09 111.227 122.317 111.946 121.301 112.607C120.624 113.048 119.893 113.465 119.111 113.861C118.329 114.258 117.531 114.534 116.714 114.691C116.046 114.82 115.315 114.873 114.525 114.857C113.734 114.839 112.979 114.697 112.256 114.425C111.08 113.968 109.893 113.331 108.694 112.504C107.495 111.677 106.344 110.705 105.238 109.575C104.133 108.446 103.105 107.188 102.151 105.79C101.198 104.392 100.374 102.905 99.6778 101.319C98.9821 99.7331 98.4378 98.0801 98.0477 96.3507C97.6571 94.6223 97.4646 92.864 97.4744 91.0779C97.5388 89.9377 97.8256 88.786 98.3368 87.6292C98.8485 86.474 99.5164 85.5581 100.339 84.895C101.404 84.0348 102.523 83.3358 103.692 82.8011C104.863 82.268 105.968 81.9862 107.005 81.9521C108.179 81.9304 109.218 82.1392 110.119 82.5637ZM105.087 90.8591C105.106 91.7816 105.281 92.8689 105.613 94.1125C105.944 95.357 106.387 96.6513 106.943 97.9959C107.498 99.3404 108.089 100.57 108.716 101.691C109.325 102.795 110.028 103.86 110.823 104.891C111.619 105.923 112.416 106.824 113.214 107.602C114.011 108.379 114.778 108.967 115.514 109.369C116.251 109.771 116.862 109.875 117.35 109.676C117.807 109.507 118.077 109.11 118.162 108.475C118.246 107.842 118.18 107.044 117.966 106.073C117.751 105.104 117.381 103.995 116.852 102.743C116.324 101.491 115.677 100.187 114.909 98.8318C114.288 97.7047 113.541 96.5158 112.67 95.2668C111.799 94.0185 110.929 92.9022 110.062 91.9272C109.176 90.9317 108.342 90.1587 107.561 89.6135C106.78 89.0698 106.175 88.9098 105.749 89.1346C105.288 89.3589 105.067 89.9373 105.087 90.8591Z" fill="white"/>
<path d="M142.364 54.8299C143.294 55.5363 144.213 56.4486 145.121 57.5595C146.583 59.434 147.986 61.6055 149.336 64.0529C150.684 66.4996 151.858 69.0372 152.864 71.6407C153.869 74.2453 154.636 76.7952 155.174 79.2793C155.711 81.7634 155.886 84.0048 155.704 86.008C155.508 87.2543 155.1 88.2369 154.483 88.9729C153.865 89.7088 152.99 90.2948 151.859 90.7516C151.104 91.0555 150.294 91.3185 149.429 91.5429C148.565 91.7681 147.69 91.8555 146.804 91.8062C146.078 91.7648 145.291 91.6252 144.443 91.3887C143.595 91.153 142.792 90.7872 142.034 90.289C140.8 89.4624 139.566 88.4326 138.332 87.19C137.098 85.9482 135.926 84.5597 134.815 83.0122C133.705 81.4645 132.687 79.7986 131.764 78.002C130.842 76.2051 130.067 74.348 129.442 72.4211C128.818 70.4939 128.366 68.5372 128.091 66.5424C127.816 64.5484 127.761 62.5799 127.931 60.6375C128.103 59.4138 128.518 58.2403 129.178 57.1245C129.839 56.0102 130.647 55.1993 131.599 54.7036C132.832 54.0612 134.106 53.6078 135.419 53.3447C136.731 53.0835 137.95 53.0773 139.07 53.3199C140.337 53.6163 141.435 54.1244 142.364 54.8299ZM136.201 62.5199C136.141 63.5325 136.235 64.7669 136.486 66.2174C136.736 67.6673 137.105 69.2043 137.592 70.8267C138.079 72.4499 138.615 73.9566 139.2 75.3574C139.766 76.7335 140.439 78.0923 141.214 79.4404C141.99 80.7898 142.776 81.9959 143.574 83.0666C144.372 84.1368 145.151 84.9911 145.909 85.6322C146.669 86.2737 147.315 86.5536 147.854 86.4675C148.355 86.4047 148.675 86.0416 148.812 85.3676C148.951 84.6944 148.941 83.7995 148.786 82.6765C148.631 81.5537 148.322 80.2385 147.856 78.7224C147.39 77.2082 146.802 75.6033 146.092 73.9123C145.518 72.5105 144.817 71.0076 143.987 69.4053C143.158 67.8039 142.319 66.3475 141.47 65.0465C140.605 63.7186 139.774 62.6469 138.98 61.8386C138.186 61.0319 137.547 60.6917 137.067 60.8212C136.55 60.9374 136.261 61.5089 136.201 62.5199Z" fill="white"/>
<path d="M158.916 46.709C157.72 47.719 156.491 48.8202 155.236 50.0121C155.639 51.407 156.147 52.893 156.757 54.4697C157.368 56.0464 157.957 57.7314 158.528 59.518C159.047 59.092 159.578 58.6709 160.121 58.256C160.662 57.8421 161.234 57.4423 161.834 57.0588C162.76 56.4101 163.728 56.4787 164.727 57.2732C165.297 57.7511 165.806 58.2544 166.258 58.7814C166.708 59.3079 167.147 59.8528 167.576 60.4134C168.114 61.0355 168.377 61.5174 168.367 61.8543C168.358 62.1929 168.109 62.5455 167.625 62.9158C166.645 63.7797 165.679 64.6823 164.727 65.6215C163.775 66.5615 162.849 67.5116 161.948 68.4728C162.875 70.9228 163.787 73.2232 164.682 75.3821C165.576 77.5419 166.367 79.4524 167.053 81.1209C167.337 81.6504 167.358 82.0379 167.116 82.2869C166.873 82.5353 166.506 82.7165 166.015 82.833C165.523 82.9481 164.962 83.0001 164.331 82.9905C163.7 82.9807 163.139 82.959 162.647 82.92C161.975 82.8288 161.473 82.6166 161.14 82.2771C160.807 81.9382 160.418 81.4079 159.973 80.6851C159.514 79.8969 158.913 78.7492 158.174 77.2347C157.434 75.721 156.608 74.0082 155.695 72.0935C154.784 70.1782 153.81 68.1323 152.776 65.9515C151.743 63.7712 150.699 61.618 149.645 59.4958C148.592 57.3737 147.553 55.3652 146.524 53.4743C145.496 51.585 144.536 49.9666 143.643 48.6246C144.285 47.6778 145.057 46.689 145.962 45.665C146.867 44.6418 147.851 43.6101 148.918 42.5731C149.983 41.5364 151.104 40.5241 152.28 39.5386C153.457 38.554 154.653 37.6308 155.865 36.7717C156.176 36.5724 156.454 36.4268 156.697 36.3344C156.94 36.2419 157.187 36.2102 157.437 36.2382C157.688 36.2667 157.966 36.3611 158.271 36.522C158.577 36.6822 158.938 36.9235 159.353 37.2448C160.648 38.3041 161.685 39.4949 162.465 40.7966C162.97 41.5651 163.218 42.1254 163.212 42.477C163.205 42.8279 162.923 43.2464 162.37 43.7333C161.266 44.7096 160.113 45.6996 158.916 46.709Z" fill="white"/>
</g>
<defs>
<clipPath id="clip0_397_13059">
<rect width="283.956" height="185.924" fill="white" transform="translate(0 86.3616) rotate(-17.7063)"/>
</clipPath>
</defs>
</svg>
