<svg width="23" height="21" viewBox="0 0 23 21" fill="none" xmlns="http://www.w3.org/2000/svg">
<path d="M16.0125 8.00624C16.0125 9.85853 15.3702 11.6535 14.1952 13.0854C13.0201 14.5172 11.3849 15.4973 9.56819 15.8587C7.75149 16.22 5.8657 15.9403 4.23213 15.0671C2.59856 14.194 1.31828 12.7814 0.609439 11.0701C-0.0994003 9.35881 -0.192944 7.45468 0.344746 5.68216C0.882436 3.90963 2.01809 2.37837 3.55821 1.3493C5.09833 0.32022 6.94763 -0.143003 8.79099 0.0385522C10.6344 0.220108 12.3577 1.03521 13.6675 2.34497L11.9949 4.01756C11.0721 3.09476 9.8579 2.52047 8.55914 2.39255C7.26039 2.26464 5.95746 2.59101 4.87235 3.31605C3.78725 4.04109 2.98712 5.11995 2.60829 6.36879C2.22945 7.61764 2.29536 8.95921 2.79478 10.1649C3.29419 11.3706 4.19622 12.3658 5.34717 12.981C6.49811 13.5962 7.82676 13.7933 9.10672 13.5387C10.3867 13.2841 11.5388 12.5936 12.3667 11.5848C13.1946 10.576 13.6471 9.31129 13.6471 8.00624H16.0125Z" fill="url(#paint0_linear_683_1617)"/>
<path d="M6.65833 12.4388C6.57875 10.5883 7.1433 8.76733 8.25578 7.28633C9.36826 5.80534 10.9598 4.75589 12.7593 4.31681C14.5588 3.87773 16.4549 4.07619 18.1245 4.87836C19.794 5.68054 21.1338 7.0368 21.9155 8.71606C22.6972 10.3953 22.8725 12.2937 22.4115 14.0877C21.9504 15.8816 20.8816 17.4603 19.3871 18.5546C17.8926 19.6489 16.0649 20.1911 14.2155 20.0889C12.366 19.9867 10.6092 19.2464 9.24436 17.9941L10.8435 16.2512C11.8051 17.1335 13.0429 17.6551 14.346 17.7271C15.649 17.7991 16.9367 17.4171 17.9897 16.6461C19.0426 15.8751 19.7957 14.7629 20.1205 13.4989C20.4453 12.2349 20.3219 10.8974 19.7711 9.7143C19.2203 8.53117 18.2764 7.57561 17.1001 7.01043C15.9238 6.44525 14.5879 6.30543 13.32 6.61479C12.0522 6.92414 10.9308 7.66354 10.147 8.70698C9.36323 9.75043 8.96547 11.0334 9.02154 12.3372L6.65833 12.4388Z" fill="url(#paint1_linear_683_1617)"/>
<defs>
<linearGradient id="paint0_linear_683_1617" x1="0" y1="8.00624" x2="16.0125" y2="8.00624" gradientUnits="userSpaceOnUse">
<stop stop-color="#FABD61"/>
<stop offset="1" stop-color="#F59855"/>
</linearGradient>
<linearGradient id="paint1_linear_683_1617" x1="22.656" y1="11.7509" x2="6.65833" y2="12.4388" gradientUnits="userSpaceOnUse">
<stop stop-color="#FABD61"/>
<stop offset="1" stop-color="#F59855"/>
</linearGradient>
</defs>
</svg>
